<svg width="75" height="75" viewBox="0 0 75 75" fill="none" xmlns="http://www.w3.org/2000/svg">
<g opacity="0.5">
<path opacity="0.5" d="M37.5 75C58.2107 75 75 58.2107 75 37.5C75 16.7893 58.2107 0 37.5 0C16.7893 0 0 16.7893 0 37.5C0 58.2107 16.7893 75 37.5 75Z" fill="url(#paint0_linear)"/>
</g>
<path d="M37.5729 73.9696C57.8469 73.9696 74.2821 57.5344 74.2821 37.2604C74.2821 16.9865 57.8469 0.55127 37.5729 0.55127C17.299 0.55127 0.86377 16.9865 0.86377 37.2604C0.86377 57.5344 17.299 73.9696 37.5729 73.9696Z" fill="#F5F5F5"/>
<path d="M37.6074 74.1146C44.7804 74.1263 51.7981 72.0261 57.7855 68.076C56.4327 60.6834 51.2847 60.2622 51.2847 60.2622H22.8965C22.8965 60.2622 18.0387 60.6608 16.5215 67.4613C22.6944 71.8034 30.0604 74.1276 37.6074 74.1146V74.1146Z" fill="#303030"/>
<path d="M37.2175 54.2053C47.0032 54.2053 54.936 46.2724 54.936 36.4868C54.936 26.7011 47.0032 18.7683 37.2175 18.7683C27.4319 18.7683 19.499 26.7011 19.499 36.4868C19.499 46.2724 27.4319 54.2053 37.2175 54.2053Z" fill="#333333"/>
<path opacity="0.1" d="M31.499 51.2451H42.8522V60.3279C42.8522 61.833 42.2544 63.2765 41.1903 64.341C40.1262 65.4055 38.6829 66.0039 37.1777 66.0044V66.0044C35.6722 66.0044 34.2284 65.4064 33.1638 64.3418C32.0992 63.2772 31.5012 61.8334 31.5012 60.3279V51.2451H31.499Z" fill="black"/>
<path d="M31.8588 50.8237H42.4963C42.5918 50.8237 42.6833 50.8617 42.7508 50.9292C42.8184 50.9967 42.8563 51.0882 42.8563 51.1837V59.9065C42.8564 60.6522 42.7096 61.3906 42.4243 62.0796C42.1389 62.7686 41.7206 63.3946 41.1933 63.9219C40.6659 64.4491 40.0398 64.8673 39.3508 65.1525C38.6618 65.4377 37.9233 65.5844 37.1776 65.5841V65.5841C35.672 65.5841 34.2282 64.986 33.1636 63.9215C32.099 62.8569 31.501 61.4131 31.501 59.9075V51.1837C31.501 51.0886 31.5386 50.9974 31.6056 50.9299C31.6727 50.8625 31.7637 50.8243 31.8588 50.8237V50.8237Z" fill="#FDB797"/>
<path opacity="0.1" d="M31.5195 55.5322C35.1785 56.8992 39.2062 56.9103 42.8727 55.5634V54.1665H31.5195V55.5322Z" fill="black"/>
<path d="M37.2171 56.2919C46.2046 56.2919 53.4904 49.0061 53.4904 40.0186C53.4904 31.0312 46.2046 23.7454 37.2171 23.7454C28.2296 23.7454 20.9438 31.0312 20.9438 40.0186C20.9438 49.0061 28.2296 56.2919 37.2171 56.2919Z" fill="#FDB797"/>
<path opacity="0.1" d="M25.6255 25.2164C25.6255 25.2164 32.484 39.1376 51.8304 31.0531L47.3261 23.9904L39.3415 21.1248L25.6255 25.2164Z" fill="black"/>
<path d="M25.6255 25.0123C25.6255 25.0123 32.484 38.9335 51.8304 30.8468L47.3261 23.7841L39.3415 20.9185L25.6255 25.0123Z" fill="#333333"/>
<path d="M25.5653 24.0687C26.0277 22.6372 26.827 21.3375 27.8959 20.2789C31.0968 17.1145 36.3447 16.4473 39.0363 12.8391C39.681 13.8405 39.1824 15.3803 38.0692 15.8101C40.648 15.7929 43.6362 15.5673 45.0943 13.4462C45.4547 14.2851 45.5695 15.209 45.4255 16.1106C45.2816 17.0122 44.8846 17.8544 44.2809 18.5393C46.5664 18.6468 49.0087 20.1941 49.1527 22.4774C49.2516 23.9989 48.2931 25.4387 47.0478 26.3112C45.8024 27.1837 44.2852 27.5845 42.797 27.9122C38.4518 28.8717 22.7297 32.8871 25.5653 24.0687Z" fill="#333333"/>
<path d="M20.9378 42.8424C21.7739 42.8424 22.4518 41.5715 22.4518 40.0036C22.4518 38.4358 21.7739 37.1648 20.9378 37.1648C20.1017 37.1648 19.4238 38.4358 19.4238 40.0036C19.4238 41.5715 20.1017 42.8424 20.9378 42.8424Z" fill="#FDB797"/>
<path d="M53.4886 42.8424C54.3247 42.8424 55.0025 41.5715 55.0025 40.0036C55.0025 38.4358 54.3247 37.1648 53.4886 37.1648C52.6524 37.1648 51.9746 38.4358 51.9746 40.0036C51.9746 41.5715 52.6524 42.8424 53.4886 42.8424Z" fill="#FDB797"/>
<defs>
<linearGradient id="paint0_linear" x1="37.5" y1="75" x2="37.5" y2="0" gradientUnits="userSpaceOnUse">
<stop stop-color="#808080" stop-opacity="0.25"/>
<stop offset="0.54" stop-color="#808080" stop-opacity="0.12"/>
<stop offset="1" stop-color="#808080" stop-opacity="0.1"/>
</linearGradient>
</defs>
</svg>
