<svg width="1920" height="1356" viewBox="0 0 1920 1356" fill="none" xmlns="http://www.w3.org/2000/svg">
<path opacity="0.1" d="M1805.23 790.079C1737.72 882.703 1760 1014.91 1799.02 1120.25C1812.09 1155.51 1826.93 1192.8 1820.16 1231.16C1811.88 1278.06 1772.98 1313.2 1732.55 1332.34C1658.84 1367.22 1571.77 1361.65 1505.83 1317.7C1448.94 1279.77 1408.88 1216.73 1350.88 1180.61C1253.81 1120.18 1127.79 1147.18 1019.75 1193.32C943.313 1225.96 859.637 1267.99 785.117 1237.89C732.701 1216.68 697.407 1162.7 678.837 1104.99C669.871 1077.12 663.595 1046.88 645.732 1025.07C635.111 1012.1 621.076 1003.07 606.644 995.518C474.932 926.55 305.512 969.655 177.817 892.704C91.607 840.736 37.9497 739.887 15.6557 633.866C-6.63823 527.845 -1.12078 415.927 7.75888 305.923C14.0695 227.748 24.0526 144.21 71.0545 82.777C120.763 17.7919 204.06 -8.03668 278.58 2.15335C353.1 12.3434 419.861 53.7759 478.312 103.088C551.366 164.728 618.628 242.093 709.545 265.473C771.461 281.405 837.24 270.129 901.604 265.146C1009.19 256.835 1116.41 266.405 1222.96 277.215C1324.97 287.56 1427.68 299.113 1524.28 333.028C1592.65 357.029 1646.84 402.392 1711.21 433.393C1753.15 453.601 1799.31 458.291 1838.8 484.395C1887.52 516.552 1931.56 573.519 1917.26 641.884C1903.75 706.835 1841.06 740.922 1805.23 790.079Z" fill="#C5C5C5"/>
<path d="M1506.43 1030.54H168.019V1035.29H1506.43V1030.54Z" fill="#3F3D56"/>
<path d="M1624.66 188.466H91.2866V934.652H1624.66V188.466Z" fill="#3F3D56"/>
<path opacity="0.1" d="M1624.66 245.865V225.366H1577.51V188.466H1557.01V225.366H158.935V188.466H138.436V225.366H91.2866V245.865H138.436V877.253H91.2866V897.753H138.436V934.652H158.935V897.753H1557.01V934.652H1577.51V897.753H1624.66V877.253H1577.51V245.865H1624.66ZM1557.01 877.253H158.935V245.865H1557.01L1557.01 877.253Z" fill="black"/>
<path d="M1010.81 286.865H769.034V516.849H1010.81V286.865Z" fill="#D0CDE1"/>
<path d="M983.338 314.331H796.512V457.198H983.338V314.331Z" fill="#3997F5"/>
<path d="M903.113 337.814H837.617V403.31H903.113V337.814Z" fill="#F2F2F2"/>
<path d="M862.692 354.192V433.723H942.224V354.192H862.692ZM938.774 430.274H866.142V357.642H938.774V430.274Z" fill="#3F3D56"/>
<path d="M897.943 471.382H796.322V476.731H897.943V471.382Z" fill="#F2F2F2"/>
<path d="M889.923 310.922C895.831 310.922 900.62 306.132 900.62 300.225C900.62 294.317 895.831 289.528 889.923 289.528C884.015 289.528 879.226 294.317 879.226 300.225C879.226 306.132 884.015 310.922 889.923 310.922Z" fill="#3F3D56"/>
<path d="M1102 618.567H860.223V848.551H1102V618.567Z" fill="#D0CDE1"/>
<path d="M1074.52 646.051H887.693V788.918H1074.52V646.051Z" fill="#3997F5"/>
<path d="M989.127 805.762H887.506V811.11H989.127V805.762Z" fill="#F2F2F2"/>
<path d="M989.127 821.813H887.506V827.161H989.127V821.813Z" fill="#F2F2F2"/>
<path d="M920.937 738.911C932.752 738.911 942.33 729.332 942.33 717.517C942.33 705.701 932.752 696.123 920.937 696.123C909.121 696.123 899.543 705.701 899.543 717.517C899.543 729.332 909.121 738.911 920.937 738.911Z" fill="#3F3D56"/>
<path d="M981.109 738.911C992.925 738.911 1002.5 729.332 1002.5 717.517C1002.5 705.701 992.925 696.123 981.109 696.123C969.294 696.123 959.716 705.701 959.716 717.517C959.716 729.332 969.294 738.911 981.109 738.911Z" fill="#F2F2F2"/>
<path d="M1041.28 738.911C1053.09 738.911 1062.67 729.332 1062.67 717.517C1062.67 705.701 1053.09 696.123 1041.28 696.123C1029.46 696.123 1019.88 705.701 1019.88 717.517C1019.88 729.332 1029.46 738.911 1041.28 738.911Z" fill="#FF6584"/>
<path d="M981.11 642.639C987.018 642.639 991.807 637.85 991.807 631.943C991.807 626.035 987.018 621.246 981.11 621.246C975.202 621.246 970.413 626.035 970.413 631.943C970.413 637.85 975.202 642.639 981.11 642.639Z" fill="#3F3D56"/>
<path d="M731.972 546.72H490.197V776.704H731.972V546.72Z" fill="#D0CDE1"/>
<path d="M704.5 574.187H517.674V717.054H704.5V574.187Z" fill="#3997F5"/>
<path d="M598.644 707.681C623.694 707.681 644.002 687.374 644.002 662.323C644.002 637.272 623.694 616.964 598.644 616.964C573.593 616.964 553.285 637.272 553.285 662.323C553.285 687.374 573.593 707.681 598.644 707.681Z" fill="#F2F2F2"/>
<path d="M612.01 697.304C600.763 697.304 589.768 693.968 580.415 687.719C571.063 681.471 563.774 672.589 559.47 662.197C555.166 651.806 554.04 640.371 556.234 629.34C558.428 618.308 563.844 608.175 571.798 600.222C579.751 592.269 589.884 586.852 600.916 584.658C611.947 582.464 623.382 583.59 633.773 587.894C644.164 592.199 653.046 599.488 659.295 608.84C665.544 618.192 668.879 629.187 668.879 640.434C668.862 655.512 662.865 669.967 652.204 680.628C641.542 691.289 627.088 697.286 612.01 697.304V697.304ZM612.01 585.633C601.172 585.633 590.576 588.847 581.564 594.869C572.552 600.891 565.528 609.449 561.381 619.463C557.233 629.477 556.148 640.495 558.262 651.126C560.377 661.756 565.596 671.521 573.26 679.185C580.924 686.849 590.689 692.068 601.319 694.183C611.949 696.297 622.968 695.212 632.982 691.064C642.995 686.916 651.554 679.892 657.576 670.88C663.597 661.868 666.811 651.273 666.811 640.434C666.795 625.905 661.016 611.976 650.742 601.702C640.469 591.429 626.539 585.65 612.01 585.633V585.633Z" fill="#3F3D56"/>
<path d="M619.107 747.287H517.486V752.636H619.107V747.287Z" fill="#F2F2F2"/>
<path d="M659.221 731.233H517.486V736.581H659.221V731.233Z" fill="#F2F2F2"/>
<path d="M611.083 570.781C616.991 570.781 621.78 565.991 621.78 560.084C621.78 554.176 616.991 549.387 611.083 549.387C605.175 549.387 600.386 554.176 600.386 560.084C600.386 565.991 605.175 570.781 611.083 570.781Z" fill="#3F3D56"/>
<path d="M466.233 282.765H224.458V512.749H466.233V282.765Z" fill="#D0CDE1"/>
<path d="M438.762 310.232H251.936V453.099H438.762V310.232Z" fill="#3997F5"/>
<path d="M365.44 422.091H325.249V434.001H365.44V422.091Z" fill="#3F3D56"/>
<path d="M414.038 329.348H276.667V334.452H414.038V329.348Z" fill="#3F3D56"/>
<path d="M414.038 345.514H276.667V350.619H414.038V345.514Z" fill="#3F3D56"/>
<path d="M414.038 361.67H276.667V366.775H414.038V361.67Z" fill="#3F3D56"/>
<path d="M414.038 377.844H276.667V382.949H414.038V377.844Z" fill="#3F3D56"/>
<path d="M414.038 394.002H276.667V399.106H414.038V394.002Z" fill="#3F3D56"/>
<path d="M353.375 467.287H251.754V472.636H353.375V467.287Z" fill="#F2F2F2"/>
<path d="M393.488 480.667H251.754V486.015H393.488V480.667Z" fill="#F2F2F2"/>
<path d="M345.346 306.833C351.253 306.833 356.043 302.044 356.043 296.136C356.043 290.229 351.253 285.439 345.346 285.439C339.438 285.439 334.649 290.229 334.649 296.136C334.649 302.044 339.438 306.833 345.346 306.833Z" fill="#3F3D56"/>
<path d="M1207.05 432.997L1382.15 445.863L1431.66 449.501L1428.59 446.426L1437.89 580.941L1442.54 648.198C1442.73 650.916 1442.92 653.633 1443.1 656.351C1443.25 658.61 1443.88 660.787 1441.2 661.345C1435.88 662.454 1430.34 662.915 1424.95 663.596C1413.99 664.979 1403 666.142 1392 667.087C1347.95 670.868 1303.68 671.145 1259.59 667.917C1248.57 667.11 1237.57 666.084 1226.6 664.837C1222.51 664.374 1217.45 664.2 1215.95 659.622C1214.42 654.901 1214.15 649.535 1213.46 644.637C1210.36 622.817 1208.25 600.884 1207.13 578.84C1204.84 534.905 1206.4 490.855 1211.78 447.192C1212.44 441.845 1213.16 436.506 1213.94 431.176C1214.51 427.304 1208.58 425.633 1208.01 429.541C1201.4 474.662 1198.86 520.286 1200.42 565.862C1201.21 588.664 1203.04 611.398 1205.89 634.066C1206.62 639.791 1207.4 645.508 1208.25 651.216C1208.92 655.759 1209.09 661.116 1211.79 665.019C1214.4 668.785 1218.78 669.993 1223.08 670.567C1228.56 671.297 1234.08 671.821 1239.58 672.357C1285.24 676.81 1331.2 677.49 1376.98 674.39C1388.5 673.609 1400 672.59 1411.48 671.332C1417.14 670.712 1422.79 670.034 1428.43 669.298C1431.19 668.938 1433.95 668.565 1436.71 668.18C1439.29 667.997 1441.84 667.553 1444.32 666.855C1449.51 664.987 1449.5 659.989 1449.18 655.332L1447.98 638.008L1445.59 603.36L1435.94 463.75L1434.74 446.426C1434.72 445.617 1434.39 444.848 1433.81 444.277C1433.24 443.705 1432.47 443.374 1431.66 443.351L1256.57 430.486L1207.05 426.847C1203.1 426.557 1203.12 432.708 1207.05 432.997V432.997Z" fill="#D0CDE1"/>
<path d="M1282.08 505.61C1282.97 503.262 1280.74 508.318 1281.86 506.081C1282.16 505.487 1282.43 504.886 1282.75 504.3C1283.38 503.135 1284.07 502.007 1284.83 500.923C1285.58 499.842 1286.73 499.425 1284.5 501.305C1284.96 500.832 1285.39 500.331 1285.79 499.804C1286.83 498.662 1287.94 497.585 1289.12 496.579C1289.96 495.856 1291.56 495.24 1288.7 496.843C1289.27 496.526 1289.79 496.051 1290.33 495.689C1291.44 494.945 1292.58 494.257 1293.75 493.624C1294.34 493.307 1294.93 493.005 1295.54 492.718C1296.56 492.229 1298.26 492.061 1295.04 492.885C1296.42 492.531 1297.76 491.877 1299.14 491.485C1300.32 491.151 1301.51 490.871 1302.71 490.643C1303.78 490.441 1305.73 490.593 1302.06 490.678C1302.72 490.663 1303.39 490.536 1304.04 490.492C1305.37 490.402 1306.69 490.382 1308.01 490.432C1308.67 490.458 1309.33 490.524 1309.99 490.563C1312.18 490.694 1306.67 489.954 1309.99 490.586C1311.29 490.833 1312.58 491.158 1313.84 491.557C1314.45 491.82 1315.08 492.041 1315.72 492.218L1314.02 491.485C1314.44 491.666 1314.85 491.856 1315.26 492.054C1316.48 492.644 1317.67 493.306 1318.81 494.037C1319.37 494.4 1319.92 494.795 1320.48 495.174C1322.23 496.365 1318.13 493.17 1320.61 495.347C1321.46 496.085 1322.26 496.86 1323.04 497.673C1323.5 498.16 1323.95 498.659 1324.39 499.17C1325.13 500.03 1325.69 501.6 1324.15 498.786C1325.56 501.361 1327.32 503.698 1328.65 506.353C1329.78 508.618 1327.62 503.54 1328.48 505.924C1328.71 506.567 1328.96 507.202 1329.18 507.85C1329.62 509.145 1329.99 510.46 1330.31 511.792C1330.63 513.126 1330.79 514.489 1331.08 515.824C1330.27 512.149 1330.86 514.274 1330.94 515.273C1331.01 516.181 1331.06 517.092 1331.07 518.003C1331.09 519.141 1331.06 520.278 1330.99 521.415C1330.95 522.081 1330.8 522.789 1330.81 523.453C1330.76 520.003 1331.05 521.721 1330.84 522.88C1330.59 524.222 1330.27 525.55 1329.89 526.858C1329.69 527.513 1329.48 528.163 1329.25 528.807C1329.04 529.377 1328.83 529.944 1328.6 530.507C1329.26 528.967 1329.31 528.821 1328.76 530.068C1325.36 536.861 1321.13 543.195 1317.79 550.012C1309.5 567.007 1306.72 586.163 1309.82 604.816C1310.67 607.909 1312.7 610.547 1315.47 612.166C1318.34 613.813 1321.75 614.258 1324.95 613.406C1331.88 611.163 1334.6 605.11 1333.54 598.276C1333.16 595.869 1333.73 600.423 1333.49 597.999C1333.38 596.959 1333.28 595.921 1333.2 594.879C1333.06 592.795 1333 590.708 1333.02 588.618C1333.05 586.827 1333.13 585.039 1333.28 583.254C1333.29 582.207 1333.4 581.163 1333.61 580.138C1333.6 580.144 1333.21 582.611 1333.48 581.191C1333.59 580.605 1333.67 580.012 1333.77 579.425C1334.48 575.457 1335.5 571.551 1336.83 567.745C1337.12 566.9 1337.44 566.065 1337.75 565.226C1338.58 563.01 1336.9 567.005 1337.89 564.86C1338.78 562.947 1339.69 561.058 1340.7 559.206C1344.94 551.428 1349.73 544.14 1352.81 535.773C1355.16 529.21 1356.09 522.223 1355.54 515.273C1354.4 500.928 1348.32 486.373 1336.98 477.085C1331.12 472.208 1324.2 468.784 1316.77 467.091C1309.33 465.398 1301.61 465.483 1294.22 467.34C1286.1 469.302 1278.6 473.219 1272.35 478.75C1266.1 484.28 1261.3 491.257 1258.36 499.07C1256.09 505.103 1260.88 512.818 1266.95 514.2C1273.95 515.794 1279.65 512.069 1282.08 505.61V505.61Z" fill="#D0CDE1"/>
<path d="M1325.06 652.149C1327.08 652.149 1329.06 651.549 1330.74 650.426C1332.42 649.302 1333.73 647.705 1334.5 645.837C1335.28 643.969 1335.48 641.913 1335.08 639.93C1334.69 637.947 1333.72 636.125 1332.29 634.695C1330.86 633.265 1329.04 632.292 1327.05 631.897C1325.07 631.503 1323.01 631.705 1321.14 632.479C1319.28 633.253 1317.68 634.563 1316.56 636.244C1315.43 637.926 1314.83 639.903 1314.83 641.925C1314.86 644.627 1315.95 647.21 1317.86 649.121C1319.77 651.032 1322.36 652.119 1325.06 652.149V652.149Z" fill="#D0CDE1"/>
<path d="M216.487 1009.78H159.088V1067.18H216.487V1009.78Z" fill="#3997F5"/>
<path d="M251.345 1034.37H181.646V964.676H251.345V1034.37ZM184.676 1031.34H248.314V967.706H184.676V1031.34Z" fill="#3F3D56"/>
<path d="M1494.48 699.932L1486.28 724.532C1486.28 724.532 1435.04 783.981 1471.93 792.18C1508.83 800.38 1512.93 728.632 1512.93 728.632L1523.18 708.132L1494.48 699.932Z" fill="#FFB8B8"/>
<path d="M1551.89 402.688C1551.89 402.688 1539.59 400.638 1535.49 449.837C1531.39 499.036 1529.34 585.134 1529.34 585.134L1482.19 706.082L1541.64 724.532L1570.34 587.184L1551.89 402.688Z" fill="#575A89"/>
<path d="M1525.24 1134.53L1519.09 1173.48H1574.44L1572.39 1134.53H1525.24Z" fill="#FFB8B8"/>
<path d="M1703.57 1177.58L1699.47 1230.88L1736.37 1234.98V1173.48L1703.57 1177.58Z" fill="#FFB8B8"/>
<path d="M1547.79 626.127L1500.64 896.722L1512.94 1142.72H1576.49V919.271L1637.99 804.474L1687.18 947.971L1699.48 1187.82L1769.18 1175.52L1752.78 941.821C1752.78 941.821 1740.48 630.227 1728.18 626.127C1715.88 622.027 1547.79 626.127 1547.79 626.127Z" fill="#2F2E41"/>
<path d="M1531.39 1161.18C1531.39 1161.18 1531.39 1140.68 1514.99 1152.98C1498.59 1165.28 1478.09 1187.83 1478.09 1187.83C1478.09 1187.83 1400.19 1230.88 1455.54 1237.03C1510.89 1243.18 1545.73 1208.33 1545.73 1208.33L1551.88 1214.48C1551.88 1214.48 1584.68 1208.33 1584.68 1200.13C1584.45 1193.26 1583.76 1186.41 1582.63 1179.63C1582.63 1179.63 1578.32 1144.85 1573.3 1151.99C1568.28 1159.13 1539.58 1173.48 1531.39 1161.18Z" fill="#2F2E41"/>
<path d="M1738.43 1218.57C1738.43 1218.57 1701.53 1200.12 1693.33 1216.52C1685.13 1232.92 1678.98 1265.72 1678.98 1265.72C1678.98 1265.72 1652.33 1316.97 1699.48 1312.87C1746.63 1308.77 1744.58 1282.12 1744.58 1275.97C1744.58 1269.82 1742.53 1255.47 1744.58 1249.32C1746.63 1243.17 1738.43 1218.57 1738.43 1218.57Z" fill="#2F2E41"/>
<path d="M1657.46 321.722C1689.16 321.722 1714.86 296.023 1714.86 264.323C1714.86 232.622 1689.16 206.924 1657.46 206.924C1625.76 206.924 1600.06 232.622 1600.06 264.323C1600.06 296.023 1625.76 321.722 1657.46 321.722Z" fill="#FFB8B8"/>
<path d="M1619.53 291.989L1617.48 365.787L1691.28 359.637V291.989H1619.53Z" fill="#FFB8B8"/>
<path d="M1695.39 322.739C1695.39 322.739 1660.54 345.289 1650.29 349.389C1640.04 353.489 1617.49 332.989 1617.49 332.989C1617.49 332.989 1611.34 337.089 1611.34 341.189C1611.34 345.289 1607.24 361.689 1607.24 361.689L1558.04 523.635L1562.14 638.433C1562.14 638.433 1711.79 652.783 1728.19 634.333C1744.59 615.884 1719.99 351.439 1719.99 351.439L1695.39 322.739Z" fill="#D0CDE1"/>
<path opacity="0.1" d="M1685.14 365.791C1685.14 365.791 1629.79 386.29 1611.34 367.84C1611.34 367.84 1637.99 373.99 1685.14 365.791Z" fill="black"/>
<path d="M1830.68 810.622C1808.13 824.972 1734.33 843.421 1734.33 843.421C1734.33 843.421 1726.28 669.892 1697.43 642.525C1668.76 615.281 1621.93 418.874 1664.04 384.722C1664.23 384.546 1664.43 384.382 1664.64 384.23L1691.28 322.731C1691.28 322.731 1695.38 316.581 1703.58 324.781C1710.22 331.889 1716.38 339.421 1722.03 347.331L1723.2 347.802L1779.43 369.88L1756.88 470.328C1756.88 470.328 1853.23 796.272 1830.68 810.622Z" fill="#575A89"/>
<path opacity="0.1" d="M1723.2 347.802L1707.68 404.73L1664.04 384.722C1664.23 384.546 1664.43 384.382 1664.63 384.23L1691.28 322.731C1691.28 322.731 1695.38 316.581 1703.58 324.781C1710.22 331.889 1716.38 339.421 1722.03 347.331L1723.2 347.802Z" fill="black"/>
<path d="M1616.45 331.973L1610.3 401.672L1609.97 404.849L1563.15 850.613C1563.15 850.613 1522.15 836.263 1507.8 819.864C1493.45 803.464 1540.6 621.018 1540.6 621.018L1544.7 391.422C1544.7 391.422 1581.07 365.818 1595.93 351.755C1599.42 348.475 1601.71 345.831 1602.1 344.273C1604.15 336.073 1616.45 331.973 1616.45 331.973Z" fill="#575A89"/>
<path opacity="0.1" d="M1616.45 331.973L1610.3 401.672L1609.98 404.849L1580.58 400.647L1595.93 351.755C1599.42 348.475 1601.72 345.831 1602.1 344.273C1604.15 336.073 1616.45 331.973 1616.45 331.973Z" fill="black"/>
<path d="M1726.14 677.38L1703.59 697.88C1703.59 697.88 1713.84 740.929 1726.14 742.979C1726.14 742.979 1734.34 730.679 1736.39 720.43C1738.44 710.18 1756.88 699.93 1756.88 699.93L1726.14 677.38Z" fill="#FFB8B8"/>
<path d="M1752.79 365.791L1779.44 369.89C1779.44 369.89 1867.59 519.538 1857.34 572.837C1847.09 626.136 1765.09 718.384 1765.09 718.384L1713.84 677.385L1789.69 574.887L1750.74 451.889L1752.79 365.791Z" fill="#575A89"/>
<path d="M1599.93 270.77C1599.93 270.77 1599.93 220.15 1612.23 208.646H1627C1627 208.646 1644.22 183.336 1666.36 192.539C1688.5 201.743 1725.4 217.849 1722.94 243.159C1720.48 268.469 1712.81 284.823 1712.81 284.823C1712.81 284.823 1708.71 284.823 1699.57 271.063C1687.36 252.678 1715.56 258.409 1678.66 251.506C1641.76 244.603 1619.62 235.399 1614.7 244.603C1609.78 253.807 1599.93 270.77 1599.93 270.77Z" fill="#2F2E41"/>
<path d="M1626.75 212.074C1626.75 212.074 1628.72 197.28 1636.81 194.094L1626.75 212.074Z" fill="#2F2E41"/>
<path d="M1626.71 215.115C1626.71 215.115 1622.61 200.767 1628.76 194.614L1626.71 215.115Z" fill="#2F2E41"/>
</svg>
