<svg width="1920" height="1309" viewBox="0 0 1920 1309" fill="none" xmlns="http://www.w3.org/2000/svg">
<path d="M288.233 1062.95C274.429 1115.52 226.056 1148.37 226.056 1148.37C226.056 1148.37 200.065 1095.99 213.87 1043.42C227.674 990.854 276.047 958.002 276.047 958.002C276.047 958.002 302.038 1010.38 288.233 1062.95Z" fill="#3F3D56"/>
<path d="M267.295 1051.83C228.631 1090.03 224.305 1148.34 224.305 1148.34C224.305 1148.34 282.666 1144.72 321.331 1106.52C359.995 1068.32 364.321 1010.01 364.321 1010.01C364.321 1010.01 305.959 1013.63 267.295 1051.83Z" fill="#2196F3"/>
<path d="M315.781 1132.98H164.541C147.952 1132.98 134.504 1146.43 134.504 1163.02V1192.86C134.504 1209.45 147.952 1222.9 164.541 1222.9H315.781C332.37 1222.9 345.818 1209.45 345.818 1192.86V1163.02C345.818 1146.43 332.37 1132.98 315.781 1132.98Z" fill="#2196F3"/>
<g opacity="0.7">
<path opacity="0.7" d="M1769.9 1075.54V1043.14H1607.89V1193C1607.89 1197.14 1608.71 1201.25 1610.29 1205.08C1611.88 1208.92 1614.21 1212.4 1617.14 1215.33C1620.08 1218.27 1623.56 1220.59 1627.39 1222.18C1631.22 1223.77 1635.33 1224.59 1639.48 1224.59H1738.3C1746.68 1224.59 1754.72 1221.26 1760.64 1215.33C1766.57 1209.41 1769.9 1201.37 1769.9 1193V1159.78C1781.05 1159.76 1791.75 1155.31 1799.63 1147.42C1807.51 1139.52 1811.94 1128.82 1811.94 1117.66C1811.94 1106.5 1807.51 1095.8 1799.63 1087.91C1791.75 1080.01 1781.05 1075.56 1769.9 1075.54V1075.54ZM1769.9 1143.58V1091.74C1776.77 1091.74 1783.36 1094.47 1788.23 1099.33C1793.09 1104.19 1795.82 1110.79 1795.82 1117.66C1795.82 1124.54 1793.09 1131.13 1788.23 1135.99C1783.36 1140.85 1776.77 1143.58 1769.9 1143.58V1143.58Z" fill="url(#paint0_linear)"/>
</g>
<path d="M1764.68 1080.61C1757.08 1080.61 1749.64 1082.87 1743.32 1087.09C1736.99 1091.32 1732.06 1097.32 1729.15 1104.35C1726.24 1111.38 1725.48 1119.11 1726.96 1126.57C1728.45 1134.03 1732.11 1140.89 1737.49 1146.26C1742.87 1151.64 1749.72 1155.31 1757.18 1156.79C1764.64 1158.27 1772.37 1157.51 1779.4 1154.6C1786.43 1151.69 1792.44 1146.76 1796.66 1140.44C1800.89 1134.11 1803.14 1126.68 1803.14 1119.07C1803.14 1108.87 1799.09 1099.09 1791.88 1091.87C1784.67 1084.66 1774.88 1080.61 1764.68 1080.61ZM1764.68 1142.74C1760 1142.74 1755.43 1141.35 1751.54 1138.75C1747.64 1136.15 1744.61 1132.45 1742.82 1128.13C1741.03 1123.8 1740.56 1119.04 1741.47 1114.45C1742.38 1109.86 1744.64 1105.64 1747.95 1102.33C1751.26 1099.02 1755.48 1096.77 1760.07 1095.86C1764.66 1094.94 1769.42 1095.41 1773.74 1097.2C1778.07 1099 1781.76 1102.03 1784.36 1105.92C1786.96 1109.81 1788.35 1114.39 1788.35 1119.07C1788.35 1125.35 1785.86 1131.37 1781.42 1135.8C1776.98 1140.24 1770.96 1142.74 1764.68 1142.74V1142.74Z" fill="#2196F3"/>
<path opacity="0.1" d="M1764.68 1080.61C1757.08 1080.61 1749.64 1082.87 1743.32 1087.09C1736.99 1091.32 1732.06 1097.32 1729.15 1104.35C1726.24 1111.38 1725.48 1119.11 1726.96 1126.57C1728.45 1134.03 1732.11 1140.89 1737.49 1146.26C1742.87 1151.64 1749.72 1155.31 1757.18 1156.79C1764.64 1158.27 1772.37 1157.51 1779.4 1154.6C1786.43 1151.69 1792.44 1146.76 1796.66 1140.44C1800.89 1134.11 1803.14 1126.68 1803.14 1119.07C1803.14 1108.87 1799.09 1099.09 1791.88 1091.87C1784.67 1084.66 1774.88 1080.61 1764.68 1080.61ZM1764.68 1142.74C1760 1142.74 1755.43 1141.35 1751.54 1138.75C1747.64 1136.15 1744.61 1132.45 1742.82 1128.13C1741.03 1123.8 1740.56 1119.04 1741.47 1114.45C1742.38 1109.86 1744.64 1105.64 1747.95 1102.33C1751.26 1099.02 1755.48 1096.77 1760.07 1095.86C1764.66 1094.94 1769.42 1095.41 1773.74 1097.2C1778.07 1099 1781.76 1102.03 1784.36 1105.92C1786.96 1109.81 1788.35 1114.39 1788.35 1119.07C1788.35 1125.35 1785.86 1131.37 1781.42 1135.8C1776.98 1140.24 1770.96 1142.74 1764.68 1142.74V1142.74Z" fill="black"/>
<path d="M1616.76 1051.03H1764.68V1197.43C1764.68 1202.54 1762.65 1207.44 1759.04 1211.05C1755.43 1214.67 1750.52 1216.7 1745.41 1216.7H1636.03C1630.92 1216.7 1626.02 1214.67 1622.41 1211.05C1618.79 1207.44 1616.76 1202.54 1616.76 1197.43V1051.03Z" fill="#2196F3"/>
<path d="M1920 1216.7H0V1281.78H1920V1216.7Z" fill="#E0E0E0"/>
<g opacity="0.7">
<path opacity="0.7" d="M1262.89 781.219C1242.31 706.526 1125.65 651.982 1037.87 639.888C1037.88 639.337 1037.91 638.791 1037.91 638.236V574.298C1038 574.264 1038.1 574.235 1038.19 574.201V571.777C1069.35 560.191 1097.46 541.675 1120.4 517.627C1143.35 493.58 1160.52 464.63 1170.64 432.968C1176.06 423.159 1180.78 412.978 1184.77 402.5C1194.14 399.088 1201.22 383.636 1201.22 365.069C1201.25 358.718 1200.36 352.395 1198.57 346.301C1199.72 336.845 1200.31 327.329 1200.33 317.803C1200.36 284.502 1193.4 251.566 1179.88 221.131C1166.36 190.697 1146.6 163.445 1121.87 141.143C1122.6 137.318 1122.85 133.415 1122.61 129.527C1120.63 98.839 1087.85 77.9899 1057.13 76.5954C1065.24 67.3894 1070.58 56.0692 1072.51 43.9508C1074.45 31.8324 1072.9 19.4136 1068.06 8.13805C1048.47 36.6765 1008.25 39.7102 973.64 39.9346C988.576 34.1505 995.297 13.4558 986.61 0C950.434 48.4899 879.912 57.4689 836.883 99.9958C827.509 109.298 819.653 120.013 813.601 131.751C785.638 154.027 763.061 182.327 747.552 214.54C732.044 246.753 724.003 282.051 724.029 317.803C724.049 327.242 724.624 336.673 725.754 346.045C723.909 352.216 722.99 358.627 723.026 365.069C723.026 383.721 730.17 399.221 739.604 402.538C743.605 413.051 748.349 423.267 753.8 433.107C763.876 464.585 780.94 493.378 803.714 517.331C826.489 541.285 854.385 559.778 885.316 571.428V638.237C885.316 638.751 885.344 639.258 885.354 639.77C797.242 651.657 679.648 706.63 659.253 781.924C641.64 846.946 622.839 918.354 613.485 960.28C693.666 1016.62 861.911 1049.7 967.35 1049.7C1067.53 1049.7 1231.27 1019.84 1309.09 968.541C1300.66 922.475 1281.27 847.931 1262.89 781.219Z" fill="url(#paint1_linear)"/>
</g>
<path d="M967.136 1031.15C1063.78 1031.15 1221.73 1002.35 1296.8 952.863C1288.67 908.424 1269.96 836.514 1252.23 772.16C1229.65 690.201 1087.14 633.382 1002.13 633.382H920.21C834.935 633.382 692.221 690.53 669.926 772.84C652.935 835.564 634.799 904.449 625.775 944.893C703.123 999.242 865.422 1031.15 967.136 1031.15Z" fill="#2196F3"/>
<path d="M962.147 554.853C1089.03 554.853 1191.88 451.998 1191.88 325.12C1191.88 198.241 1089.03 95.3857 962.147 95.3857C835.269 95.3857 732.413 198.241 732.413 325.12C732.413 451.998 835.269 554.853 962.147 554.853Z" fill="#72351C"/>
<path opacity="0.1" d="M888 516.467H1035.2V634.23C1035.2 653.75 1027.45 672.471 1013.65 686.274C999.843 700.077 981.122 707.831 961.602 707.831H961.602C942.081 707.831 923.36 700.077 909.557 686.274C895.754 672.471 888 653.75 888 634.23V516.467H888Z" fill="black"/>
<path d="M909.115 511.016H1014.09C1019.69 511.016 1025.06 513.24 1029.02 517.2C1032.98 521.16 1035.2 526.53 1035.2 532.13V628.778C1035.2 648.298 1027.45 667.019 1013.65 680.822C999.843 694.625 981.122 702.38 961.602 702.38H961.602C942.082 702.38 923.361 694.625 909.558 680.822C895.755 667.019 888 648.298 888 628.778V532.13C888 526.53 890.225 521.16 894.185 517.2C898.144 513.24 903.515 511.016 909.115 511.016V511.016Z" fill="#FDA57D"/>
<path opacity="0.1" d="M888.273 572.05C935.714 589.776 987.937 589.92 1035.48 572.457V554.374H888.273V572.05Z" fill="black"/>
<path d="M962.147 581.906C1078.67 581.906 1173.14 487.442 1173.14 370.915C1173.14 254.388 1078.67 159.924 962.147 159.924C845.62 159.924 751.156 254.388 751.156 370.915C751.156 487.442 845.62 581.906 962.147 581.906Z" fill="#FDA57D"/>
<path opacity="0.1" d="M811.858 178.996C811.858 178.996 900.778 359.491 1151.61 254.645L1093.22 163.07L989.698 125.91L811.858 178.996Z" fill="black"/>
<path d="M811.858 176.342C811.858 176.342 900.778 356.837 1151.61 251.991L1093.22 160.416L989.698 123.256L811.858 176.342Z" fill="#72351C"/>
<path d="M811.068 164.148C817.062 145.587 827.422 128.735 841.279 115.009C882.787 73.9846 950.817 65.3229 985.715 18.5464C994.095 31.5269 987.612 51.4902 973.204 57.0699C1006.59 56.8533 1045.39 53.927 1064.29 26.3969C1068.96 37.274 1070.45 49.254 1068.58 60.9442C1066.71 72.6344 1061.57 83.5546 1053.74 92.4353C1083.37 93.7805 1115 113.893 1116.91 143.497C1118.19 163.219 1105.82 181.892 1089.61 193.203C1073.41 204.514 1053.8 209.706 1034.5 213.961C978.159 226.383 774.305 278.446 811.068 164.148Z" fill="#72351C"/>
<path d="M1173.13 372.763H1167.54L1058.71 469.646C953.864 420.541 876.889 469.646 876.889 469.646L762.753 376.744L751.244 378.19C752.804 433.566 776.081 486.107 816.049 524.467C856.016 562.827 909.467 583.929 964.861 583.217C1020.25 582.504 1073.14 560.034 1112.11 520.658C1151.08 481.282 1173 428.16 1173.13 372.763V372.763ZM961.827 506.806C920.781 506.806 887.506 498.487 887.506 488.226C887.506 477.965 920.781 469.646 961.827 469.646C1002.87 469.646 1036.15 477.964 1036.15 488.226C1036.15 498.487 1002.87 506.806 961.827 506.806Z" fill="#72351C"/>
<path d="M751.072 407.516C761.912 407.516 770.699 391.039 770.699 370.715C770.699 350.39 761.912 333.914 751.072 333.914C740.232 333.914 731.445 350.39 731.445 370.715C731.445 391.039 740.232 407.516 751.072 407.516Z" fill="#FDA57D"/>
<path d="M1173.11 407.516C1183.95 407.516 1192.74 391.039 1192.74 370.715C1192.74 350.39 1183.95 333.914 1173.11 333.914C1162.27 333.914 1153.48 350.39 1153.48 370.715C1153.48 391.039 1162.27 407.516 1173.11 407.516Z" fill="#FDA57D"/>
<g opacity="0.7">
<path opacity="0.7" d="M1339.6 746.512H580.4C564.572 746.512 551.741 759.343 551.741 775.17V1188.04C551.741 1203.87 564.572 1216.7 580.4 1216.7H1339.6C1355.43 1216.7 1368.26 1203.87 1368.26 1188.04V775.17C1368.26 759.343 1355.43 746.512 1339.6 746.512Z" fill="url(#paint2_linear)"/>
</g>
<path d="M1300.43 755.187H619.571C590.279 755.187 566.533 778.933 566.533 808.225V1163.66C566.533 1192.95 590.279 1216.7 619.571 1216.7H1300.43C1329.72 1216.7 1353.47 1192.95 1353.47 1163.66V808.225C1353.47 778.933 1329.72 755.187 1300.43 755.187Z" fill="#535461"/>
<path d="M960 1012.57C974.705 1012.57 986.626 1000.65 986.626 985.942C986.626 971.238 974.705 959.317 960 959.317C945.295 959.317 933.375 971.238 933.375 985.942C933.375 1000.65 945.295 1012.57 960 1012.57Z" fill="white"/>
<path d="M1838.64 1281.78H81.3562V1308.41H1838.64V1281.78Z" fill="#E0E0E0"/>
<path opacity="0.1" d="M1838.64 1281.78H81.3562V1290.66H1838.64V1281.78Z" fill="black"/>
<path opacity="0.1" d="M1738.06 1051.03V1187.85C1738.06 1195.5 1735.02 1202.84 1729.61 1208.25C1724.2 1213.66 1716.86 1216.7 1709.21 1216.7H1724.01C1731.66 1216.7 1738.99 1213.66 1744.4 1208.25C1749.81 1202.84 1752.85 1195.5 1752.85 1187.85V1051.03H1738.06Z" fill="black"/>
<path d="M1645.95 940.748C1643.46 941.175 1640.64 941.848 1639.42 944.065C1637.48 947.582 1641 951.548 1644.21 953.965C1650.13 958.43 1656.38 962.816 1660.41 969.049C1664.44 975.281 1665.71 983.979 1661.3 989.952C1655.55 997.751 1641.83 999.429 1640.5 1009.03C1639.65 1015.19 1644.98 1020.45 1650.37 1023.54C1663.7 1031.17 1680.88 1033.21 1690.53 1045.15C1694.52 1036.94 1703.45 1032.2 1712.35 1030.17C1721.25 1028.14 1730.5 1028.3 1739.52 1026.92C1742.44 1026.48 1745.72 1025.59 1747.02 1022.94C1749.55 1017.82 1742.36 1011.68 1744.84 1006.54C1746.73 1002.63 1752.27 1002.93 1756.33 1001.37C1762.92 998.817 1765.64 990.326 1763.77 983.504C1761.9 976.683 1756.61 971.353 1751.05 966.982C1736.06 955.203 1718.03 948.276 1699.8 943.294C1691.33 940.977 1681.37 937.343 1672.57 936.992C1664.06 936.652 1654.37 939.309 1645.95 940.748Z" fill="#EEEEEE"/>
<defs>
<linearGradient id="paint0_linear" x1="1709.95" y1="1224.59" x2="1709.95" y2="1043.14" gradientUnits="userSpaceOnUse">
<stop stop-color="#808080" stop-opacity="0.25"/>
<stop offset="0.53514" stop-color="#808080" stop-opacity="0.12"/>
<stop offset="1" stop-color="#808080" stop-opacity="0.1"/>
</linearGradient>
<linearGradient id="paint1_linear" x1="418430" y1="682416" x2="418430" y2="124914" gradientUnits="userSpaceOnUse">
<stop stop-color="#808080" stop-opacity="0.25"/>
<stop offset="0.53514" stop-color="#808080" stop-opacity="0.12"/>
<stop offset="1" stop-color="#808080" stop-opacity="0.1"/>
</linearGradient>
<linearGradient id="paint2_linear" x1="397151" y1="290192" x2="397151" y2="178337" gradientUnits="userSpaceOnUse">
<stop stop-color="#808080" stop-opacity="0.25"/>
<stop offset="0.53514" stop-color="#808080" stop-opacity="0.12"/>
<stop offset="1" stop-color="#808080" stop-opacity="0.1"/>
</linearGradient>
</defs>
</svg>
