<svg width="1920" height="1223" viewBox="0 0 1920 1223" fill="none" xmlns="http://www.w3.org/2000/svg">
<path d="M1537.78 915.042H83.3796V920.2H1537.78V915.042Z" fill="#3F3D56"/>
<path d="M1666.26 0H0V810.855H1666.26V0Z" fill="#3F3D56"/>
<path opacity="0.1" d="M1666.26 62.3735V40.0972H1615.03V0H1592.75V40.0972H73.5116V0H51.2354V40.0972H0V62.3735H51.2354V748.482H0V770.758H51.2354V810.855H73.5116V770.758H1592.75V810.855H1615.03V770.758H1666.26V748.482H1615.03V62.3735H1666.26ZM1592.75 748.482H73.5116V62.3735H1592.75L1592.75 748.482Z" fill="black"/>
<path d="M999.212 106.926H736.483V356.842H999.212V106.926Z" fill="#D0CDE1"/>
<path d="M969.356 136.782H766.339V292.031H969.356V136.782Z" fill="#3997F5"/>
<path d="M882.186 162.294H811.013V233.467H882.186V162.294Z" fill="#F2F2F2"/>
<path d="M838.258 180.093V266.517H924.683V180.093H838.258ZM920.934 262.768H842.007V183.841H920.934V262.768Z" fill="#3F3D56"/>
<path d="M876.566 307.439H766.138V313.251H876.566V307.439Z" fill="#F2F2F2"/>
<path d="M867.848 133.08C874.267 133.08 879.472 127.876 879.472 121.456C879.472 115.036 874.267 109.832 867.848 109.832C861.428 109.832 856.224 115.036 856.224 121.456C856.224 127.876 861.428 133.08 867.848 133.08Z" fill="#3F3D56"/>
<path d="M1098.3 467.38H835.571V717.296H1098.3V467.38Z" fill="#D0CDE1"/>
<path d="M1068.44 497.234H865.427V652.483H1068.44V497.234Z" fill="#3997F5"/>
<path d="M975.654 670.799H865.226V676.611H975.654V670.799Z" fill="#F2F2F2"/>
<path d="M975.654 688.236H865.226V694.048H975.654V688.236Z" fill="#F2F2F2"/>
<path d="M901.551 598.15C914.39 598.15 924.799 587.741 924.799 574.902C924.799 562.062 914.39 551.654 901.551 551.654C888.711 551.654 878.303 562.062 878.303 574.902C878.303 587.741 888.711 598.15 901.551 598.15Z" fill="#3F3D56"/>
<path d="M966.936 598.15C979.776 598.15 990.184 587.741 990.184 574.902C990.184 562.062 979.776 551.654 966.936 551.654C954.097 551.654 943.688 562.062 943.688 574.902C943.688 587.741 954.097 598.15 966.936 598.15Z" fill="#F2F2F2"/>
<path d="M1032.32 598.15C1045.16 598.15 1055.57 587.741 1055.57 574.902C1055.57 562.062 1045.16 551.654 1032.32 551.654C1019.48 551.654 1009.07 562.062 1009.07 574.902C1009.07 587.741 1019.48 598.15 1032.32 598.15Z" fill="#FF6584"/>
<path d="M966.936 493.534C973.356 493.534 978.56 488.329 978.56 481.91C978.56 475.49 973.356 470.286 966.936 470.286C960.516 470.286 955.312 475.49 955.312 481.91C955.312 488.329 960.516 493.534 966.936 493.534Z" fill="#3F3D56"/>
<path d="M696.209 389.293H433.48V639.209H696.209V389.293Z" fill="#D0CDE1"/>
<path d="M666.354 419.148H463.336V574.397H666.354V419.148Z" fill="#3997F5"/>
<path d="M551.327 564.207C578.549 564.207 600.616 542.139 600.616 514.918C600.616 487.696 578.549 465.628 551.327 465.628C524.105 465.628 502.037 487.696 502.037 514.918C502.037 542.139 524.105 564.207 551.327 564.207Z" fill="#F2F2F2"/>
<path d="M565.855 552.936C553.632 552.936 541.684 549.311 531.522 542.521C521.359 535.731 513.439 526.079 508.761 514.787C504.084 503.495 502.86 491.069 505.245 479.082C507.629 467.094 513.515 456.083 522.157 447.44C530.8 438.798 541.811 432.912 553.799 430.528C565.786 428.143 578.212 429.367 589.504 434.044C600.796 438.722 610.447 446.642 617.238 456.805C624.028 466.968 627.653 478.916 627.653 491.138C627.634 507.522 621.117 523.23 609.532 534.815C597.947 546.4 582.239 552.917 565.855 552.936V552.936ZM565.855 431.588C554.077 431.588 542.563 435.08 532.77 441.624C522.977 448.167 515.345 457.468 510.837 468.349C506.33 479.23 505.151 491.204 507.449 502.756C509.746 514.307 515.418 524.918 523.746 533.247C532.075 541.575 542.685 547.247 554.237 549.544C565.789 551.842 577.762 550.663 588.644 546.156C599.525 541.648 608.826 534.016 615.369 524.223C621.913 514.429 625.405 502.916 625.405 491.138C625.388 475.35 619.108 460.213 607.944 449.049C596.78 437.885 581.643 431.605 565.855 431.588V431.588Z" fill="#3F3D56"/>
<path d="M573.563 607.243H463.135V613.055H573.563V607.243Z" fill="#F2F2F2"/>
<path d="M617.153 589.808H463.135V595.62H617.153V589.808Z" fill="#F2F2F2"/>
<path d="M564.845 415.448C571.265 415.448 576.469 410.243 576.469 403.824C576.469 397.404 571.265 392.2 564.845 392.2C558.425 392.2 553.221 397.404 553.221 403.824C553.221 410.243 558.425 415.448 564.845 415.448Z" fill="#3F3D56"/>
<path d="M407.443 102.471H144.715V352.386H407.443V102.471Z" fill="#D0CDE1"/>
<path d="M377.588 132.326H174.57V287.575H377.588V132.326Z" fill="#3997F5"/>
<path d="M297.916 253.863H254.241V266.806H297.916V253.863Z" fill="#3F3D56"/>
<path d="M350.717 153.096H201.441V158.643H350.717V153.096Z" fill="#3F3D56"/>
<path d="M350.717 170.661H201.441V176.207H350.717V170.661Z" fill="#3F3D56"/>
<path d="M350.717 188.226H201.441V193.772H350.717V188.226Z" fill="#3F3D56"/>
<path d="M350.717 205.791H201.441V211.338H350.717V205.791Z" fill="#3F3D56"/>
<path d="M350.717 223.355H201.441V228.902H350.717V223.355Z" fill="#3F3D56"/>
<path d="M284.797 302.984H174.369V308.796H284.797V302.984Z" fill="#F2F2F2"/>
<path d="M328.387 317.515H174.369V323.327H328.387V317.515Z" fill="#F2F2F2"/>
<path d="M276.079 128.624C282.498 128.624 287.703 123.42 287.703 117C287.703 110.581 282.498 105.376 276.079 105.376C269.659 105.376 264.455 110.581 264.455 117C264.455 123.42 269.659 128.624 276.079 128.624Z" fill="#3F3D56"/>
<path d="M1212.46 265.734L1402.73 279.714L1456.54 283.668L1453.2 280.326L1463.31 426.499L1468.36 499.586C1468.56 502.539 1468.77 505.491 1468.97 508.445C1469.14 510.9 1469.81 513.266 1466.9 513.872C1461.12 515.076 1455.1 515.578 1449.24 516.317C1437.33 517.82 1425.4 519.085 1413.44 520.111C1365.57 524.22 1317.46 524.522 1269.55 521.013C1257.58 520.137 1245.63 519.021 1233.7 517.666C1229.26 517.163 1223.76 516.974 1222.14 511.999C1220.47 506.87 1220.18 501.038 1219.43 495.716C1216.06 472.004 1213.77 448.171 1212.55 424.216C1210.06 376.474 1211.75 328.606 1217.6 281.159C1218.32 275.348 1219.1 269.547 1219.95 263.754C1220.57 259.548 1214.13 257.731 1213.51 261.978C1206.33 311.009 1203.56 360.587 1205.25 410.114C1206.12 434.892 1208.1 459.597 1211.2 484.228C1211.99 490.45 1212.84 496.662 1213.76 502.865C1214.5 507.801 1214.68 513.622 1217.61 517.864C1220.45 521.956 1225.21 523.269 1229.89 523.893C1235.84 524.686 1241.83 525.255 1247.81 525.838C1297.43 530.677 1347.37 531.416 1397.12 528.047C1409.64 527.199 1422.13 526.091 1434.61 524.724C1440.76 524.051 1446.9 523.314 1453.03 522.514C1456.03 522.123 1459.03 521.718 1462.03 521.299C1464.83 521.101 1467.6 520.618 1470.3 519.859C1475.93 517.829 1475.93 512.398 1475.58 507.337L1474.28 488.512L1471.67 450.861L1461.19 299.151L1459.88 280.326C1459.86 279.448 1459.5 278.612 1458.88 277.991C1458.26 277.369 1457.42 277.009 1456.54 276.985L1266.27 263.004L1212.46 259.051C1208.17 258.736 1208.19 265.42 1212.46 265.734V265.734Z" fill="#D0CDE1"/>
<path d="M1294 344.63C1294.96 342.079 1292.55 347.574 1293.76 345.143C1294.08 344.497 1294.38 343.844 1294.72 343.207C1295.41 341.941 1296.16 340.716 1296.98 339.537C1297.8 338.363 1299.05 337.91 1296.62 339.953C1297.13 339.438 1297.6 338.894 1298.03 338.322C1299.16 337.081 1300.37 335.911 1301.65 334.818C1302.56 334.031 1304.3 333.362 1301.19 335.103C1301.81 334.759 1302.38 334.244 1302.96 333.849C1304.16 333.041 1305.4 332.293 1306.68 331.606C1307.32 331.262 1307.97 330.934 1308.62 330.621C1309.73 330.09 1311.58 329.907 1308.08 330.803C1309.59 330.418 1311.04 329.708 1312.54 329.281C1313.82 328.919 1315.11 328.614 1316.41 328.366C1317.58 328.147 1319.69 328.313 1315.71 328.404C1316.42 328.388 1317.15 328.251 1317.87 328.202C1319.3 328.105 1320.74 328.083 1322.18 328.138C1322.9 328.166 1323.61 328.237 1324.33 328.28C1326.71 328.422 1320.72 327.618 1324.33 328.305C1325.74 328.573 1327.14 328.926 1328.51 329.36C1329.17 329.646 1329.86 329.886 1330.56 330.078L1328.71 329.282C1329.16 329.479 1329.61 329.685 1330.06 329.9C1331.38 330.541 1332.67 331.261 1333.91 332.055C1334.52 332.45 1335.12 332.879 1335.72 333.291C1337.62 334.584 1333.17 331.113 1335.87 333.478C1336.79 334.28 1337.66 335.123 1338.5 336.006C1339.01 336.535 1339.5 337.077 1339.98 337.633C1340.78 338.567 1341.39 340.273 1339.72 337.215C1341.25 340.014 1343.16 342.553 1344.61 345.438C1345.84 347.899 1343.48 342.381 1344.42 344.972C1344.67 345.671 1344.94 346.36 1345.18 347.064C1345.65 348.473 1346.06 349.901 1346.41 351.348C1346.75 352.798 1346.92 354.279 1347.24 355.73C1346.37 351.736 1347.01 354.046 1347.09 355.131C1347.17 356.118 1347.22 357.108 1347.24 358.098C1347.25 359.335 1347.22 360.57 1347.15 361.806C1347.1 362.529 1346.94 363.298 1346.95 364.02C1346.9 360.271 1347.22 362.138 1346.98 363.398C1346.71 364.856 1346.37 366.299 1345.95 367.72C1345.73 368.432 1345.5 369.138 1345.25 369.838C1345.03 370.458 1344.8 371.074 1344.55 371.685C1345.27 370.012 1345.33 369.853 1344.72 371.208C1341.03 378.59 1336.43 385.473 1332.8 392.88C1323.8 411.349 1320.77 432.165 1324.14 452.434C1325.06 455.796 1327.27 458.662 1330.28 460.422C1333.4 462.211 1337.1 462.695 1340.58 461.769C1348.11 459.331 1351.07 452.754 1349.91 445.328C1349.51 442.712 1350.13 447.66 1349.86 445.026C1349.75 443.897 1349.63 442.769 1349.55 441.636C1349.39 439.372 1349.33 437.104 1349.36 434.833C1349.38 432.887 1349.48 430.944 1349.64 429.004C1349.64 427.866 1349.76 426.732 1349.99 425.617C1349.99 425.625 1349.56 428.305 1349.85 426.762C1349.97 426.125 1350.05 425.481 1350.17 424.843C1350.94 420.531 1352.05 416.287 1353.49 412.151C1353.81 411.232 1354.16 410.326 1354.5 409.413C1355.39 407.005 1353.57 411.347 1354.65 409.016C1355.61 406.937 1356.61 404.885 1357.7 402.872C1362.3 394.42 1367.51 386.5 1370.86 377.408C1373.42 370.277 1374.43 362.683 1373.82 355.131C1372.58 339.543 1365.97 323.726 1353.66 313.633C1347.29 308.334 1339.76 304.614 1331.69 302.774C1323.61 300.933 1315.22 301.026 1307.19 303.045C1298.37 305.176 1290.21 309.432 1283.42 315.442C1276.63 321.453 1271.41 329.034 1268.22 337.524C1265.76 344.08 1270.96 352.463 1277.56 353.966C1285.16 355.697 1291.36 351.65 1294 344.63V344.63Z" fill="#D0CDE1"/>
<path d="M1340.7 503.871C1342.89 503.871 1345.04 503.219 1346.87 501.999C1348.7 500.778 1350.12 499.043 1350.96 497.013C1351.8 494.982 1352.02 492.749 1351.59 490.593C1351.16 488.438 1350.11 486.459 1348.55 484.905C1347 483.351 1345.02 482.293 1342.86 481.864C1340.71 481.436 1338.47 481.656 1336.44 482.497C1334.41 483.337 1332.68 484.761 1331.46 486.588C1330.24 488.416 1329.59 490.564 1329.59 492.761C1329.62 495.697 1330.8 498.504 1332.88 500.581C1334.95 502.658 1337.76 503.838 1340.7 503.871V503.871Z" fill="#D0CDE1"/>
<path d="M136.051 892.489H73.6772V954.862H136.051V892.489Z" fill="#3997F5"/>
<path d="M173.921 919.22H98.1814V843.48H173.921V919.22ZM101.474 915.927H170.628V846.773H101.474V915.927Z" fill="#3F3D56"/>
<path d="M1524.81 555.792L1515.9 582.523C1515.9 582.523 1460.21 647.125 1500.31 656.035C1540.4 664.946 1544.86 586.979 1544.86 586.979L1556 564.702L1524.81 555.792Z" fill="#FFB8B8"/>
<path d="M1587.18 232.787C1587.18 232.787 1573.82 230.56 1569.36 284.022C1564.91 337.485 1562.68 431.046 1562.68 431.046L1511.44 562.476L1576.04 582.524L1607.23 433.273L1587.18 232.787Z" fill="#575A89"/>
<path d="M1558.22 1028.05L1551.54 1070.37H1611.69L1609.46 1028.05H1558.22Z" fill="#FFB8B8"/>
<path d="M1752.03 1074.83L1747.57 1132.75L1787.67 1137.2V1070.37L1752.03 1074.83Z" fill="#FFB8B8"/>
<path d="M1582.73 475.598L1531.49 769.644L1544.86 1036.96H1613.91V794.148L1680.74 669.401L1734.21 825.335L1747.57 1085.97L1823.31 1072.6L1805.49 818.652C1805.49 818.652 1792.12 480.053 1778.76 475.598C1765.39 471.143 1582.73 475.598 1582.73 475.598Z" fill="#2F2E41"/>
<path d="M1564.91 1057.01C1564.91 1057.01 1564.91 1034.73 1547.09 1048.1C1529.26 1061.46 1506.99 1085.97 1506.99 1085.97C1506.99 1085.97 1422.34 1132.75 1482.48 1139.43C1542.63 1146.11 1580.5 1108.24 1580.5 1108.24L1587.18 1114.93C1587.18 1114.93 1622.82 1108.24 1622.82 1099.33C1622.57 1091.87 1621.82 1084.43 1620.6 1077.06C1620.6 1077.06 1615.91 1039.27 1610.46 1047.03C1605 1054.78 1573.82 1070.37 1564.91 1057.01Z" fill="#2F2E41"/>
<path d="M1789.9 1119.38C1789.9 1119.38 1749.8 1099.33 1740.89 1117.15C1731.98 1134.97 1725.3 1170.62 1725.3 1170.62C1725.3 1170.62 1696.34 1226.31 1747.57 1221.85C1798.81 1217.4 1796.58 1188.44 1796.58 1181.75C1796.58 1175.07 1794.35 1159.48 1796.58 1152.8C1798.81 1146.11 1789.9 1119.38 1789.9 1119.38Z" fill="#2F2E41"/>
<path d="M1701.91 144.795C1736.35 144.795 1764.28 116.87 1764.28 82.4218C1764.28 47.9739 1736.35 20.0483 1701.91 20.0483C1667.46 20.0483 1639.53 47.9739 1639.53 82.4218C1639.53 116.87 1667.46 144.795 1701.91 144.795Z" fill="#FFB8B8"/>
<path d="M1660.69 112.495L1658.47 192.689L1738.66 186.006V112.495H1660.69Z" fill="#FFB8B8"/>
<path d="M1743.12 145.91C1743.12 145.91 1705.25 170.414 1694.11 174.869C1682.97 179.324 1658.47 157.048 1658.47 157.048C1658.47 157.048 1651.78 161.503 1651.78 165.958C1651.78 170.414 1647.33 188.235 1647.33 188.235L1593.87 364.217L1598.32 488.964C1598.32 488.964 1760.94 504.557 1778.76 484.509C1796.58 464.46 1769.85 177.096 1769.85 177.096L1743.12 145.91Z" fill="#D0CDE1"/>
<path opacity="0.1" d="M1731.98 192.69C1731.98 192.69 1671.83 214.966 1651.78 194.917C1651.78 194.918 1680.74 201.6 1731.98 192.69Z" fill="black"/>
<path d="M1890.14 676.084C1865.64 691.677 1785.44 711.726 1785.44 711.726C1785.44 711.726 1776.69 523.157 1745.34 493.418C1714.18 463.813 1663.3 250.384 1709.06 213.272C1709.26 213.081 1709.48 212.902 1709.7 212.738L1738.66 145.909C1738.66 145.909 1743.12 139.226 1752.03 148.136C1759.23 155.86 1765.93 164.046 1772.08 172.64L1773.35 173.153L1834.45 197.144L1809.94 306.298C1809.94 306.298 1914.64 660.49 1890.14 676.084Z" fill="#575A89"/>
<path opacity="0.1" d="M1773.34 173.153L1756.48 235.014L1709.06 213.272C1709.26 213.081 1709.48 212.902 1709.7 212.738L1738.66 145.909C1738.66 145.909 1743.12 139.226 1752.03 148.136C1759.23 155.86 1765.93 164.046 1772.08 172.64L1773.34 173.153Z" fill="black"/>
<path d="M1657.35 155.934L1650.67 231.673L1650.31 235.126L1599.43 719.523C1599.43 719.523 1554.88 703.93 1539.29 686.109C1523.7 668.288 1574.93 470.029 1574.93 470.029L1579.39 220.535C1579.39 220.535 1618.9 192.712 1635.05 177.431C1638.84 173.866 1641.34 170.993 1641.76 169.3C1643.99 160.389 1657.35 155.934 1657.35 155.934Z" fill="#575A89"/>
<path opacity="0.1" d="M1657.35 155.934L1650.67 231.673L1650.31 235.126L1618.37 230.559L1635.05 177.431C1638.84 173.866 1641.34 170.993 1641.76 169.3C1643.99 160.389 1657.35 155.934 1657.35 155.934Z" fill="black"/>
<path d="M1776.53 531.288L1752.03 553.564C1752.03 553.564 1763.17 600.344 1776.53 602.572C1776.53 602.572 1785.44 589.206 1787.67 578.068C1789.9 566.93 1809.95 555.792 1809.95 555.792L1776.53 531.288Z" fill="#FFB8B8"/>
<path d="M1805.49 192.69L1834.45 197.145C1834.45 197.145 1930.24 359.762 1919.1 417.68C1907.96 475.598 1818.86 575.841 1818.86 575.841L1763.17 531.289L1845.59 419.908L1803.26 286.25L1805.49 192.69Z" fill="#575A89"/>
<path d="M1639.39 89.4282C1639.39 89.4282 1639.39 34.4214 1652.76 21.9199H1668.8C1668.8 21.9199 1687.51 -5.5836 1711.57 4.41765C1735.63 14.4189 1775.74 31.9211 1773.06 59.4245C1770.39 86.928 1762.05 104.699 1762.05 104.699C1762.05 104.699 1757.6 104.699 1747.67 89.7471C1734.4 69.7677 1765.04 75.9954 1724.94 68.4945C1684.84 60.9935 1660.78 50.9923 1655.43 60.9935C1650.09 70.9948 1639.39 89.4282 1639.39 89.4282Z" fill="#2F2E41"/>
<path d="M1668.53 25.6523C1668.53 25.6523 1670.67 9.57623 1679.46 6.11475L1668.53 25.6523Z" fill="#2F2E41"/>
<path d="M1668.5 28.9599C1668.5 28.9599 1664.03 13.3685 1670.71 6.68262L1668.5 28.9599Z" fill="#2F2E41"/>
</svg>
