<svg width="1920" height="1309" viewBox="0 0 1920 1309" fill="none" xmlns="http://www.w3.org/2000/svg">
<path d="M436.091 34.0042C445.482 34.0042 453.094 26.3921 453.094 17.0021C453.094 7.61211 445.482 0 436.091 0C426.701 0 419.089 7.61211 419.089 17.0021C419.089 26.3921 426.701 34.0042 436.091 34.0042Z" fill="#E6E6E6"/>
<path d="M522.155 34.0042C531.545 34.0042 539.157 26.3921 539.157 17.0021C539.157 7.61211 531.545 0 522.155 0C512.765 0 505.153 7.61211 505.153 17.0021C505.153 26.3921 512.765 34.0042 522.155 34.0042Z" fill="#E6E6E6"/>
<path d="M608.22 34.0042C617.61 34.0042 625.222 26.3921 625.222 17.0021C625.222 7.61211 617.61 0 608.22 0C598.83 0 591.218 7.61211 591.218 17.0021C591.218 26.3921 598.83 34.0042 608.22 34.0042Z" fill="#E6E6E6"/>
<path d="M694.284 34.0042C703.674 34.0042 711.286 26.3921 711.286 17.0021C711.286 7.61211 703.674 0 694.284 0C684.894 0 677.282 7.61211 677.282 17.0021C677.282 26.3921 684.894 34.0042 694.284 34.0042Z" fill="#E6E6E6"/>
<path d="M780.349 34.0042C789.739 34.0042 797.351 26.3921 797.351 17.0021C797.351 7.61211 789.739 0 780.349 0C770.959 0 763.347 7.61211 763.347 17.0021C763.347 26.3921 770.959 34.0042 780.349 34.0042Z" fill="#E6E6E6"/>
<path d="M436.091 121.149C445.482 121.149 453.094 113.537 453.094 104.147C453.094 94.7566 445.482 87.1445 436.091 87.1445C426.701 87.1445 419.089 94.7566 419.089 104.147C419.089 113.537 426.701 121.149 436.091 121.149Z" fill="#E6E6E6"/>
<path d="M522.155 121.149C531.545 121.149 539.157 113.537 539.157 104.147C539.157 94.7566 531.545 87.1445 522.155 87.1445C512.765 87.1445 505.153 94.7566 505.153 104.147C505.153 113.537 512.765 121.149 522.155 121.149Z" fill="#E6E6E6"/>
<path d="M608.22 121.149C617.61 121.149 625.222 113.537 625.222 104.147C625.222 94.7566 617.61 87.1445 608.22 87.1445C598.83 87.1445 591.218 94.7566 591.218 104.147C591.218 113.537 598.83 121.149 608.22 121.149Z" fill="#E6E6E6"/>
<path d="M694.284 121.149C703.674 121.149 711.286 113.537 711.286 104.147C711.286 94.7566 703.674 87.1445 694.284 87.1445C684.894 87.1445 677.282 94.7566 677.282 104.147C677.282 113.537 684.894 121.149 694.284 121.149Z" fill="white"/>
<path d="M780.349 121.149C789.739 121.149 797.351 113.537 797.351 104.147C797.351 94.7566 789.739 87.1445 780.349 87.1445C770.959 87.1445 763.347 94.7566 763.347 104.147C763.347 113.537 770.959 121.149 780.349 121.149Z" fill="#E6E6E6"/>
<path d="M952.478 121.149C961.868 121.149 969.48 113.537 969.48 104.147C969.48 94.7566 961.868 87.1445 952.478 87.1445C943.088 87.1445 935.476 94.7566 935.476 104.147C935.476 113.537 943.088 121.149 952.478 121.149Z" fill="#E6E6E6"/>
<path d="M436.091 208.294C445.482 208.294 453.094 200.682 453.094 191.292C453.094 181.902 445.482 174.29 436.091 174.29C426.701 174.29 419.089 181.902 419.089 191.292C419.089 200.682 426.701 208.294 436.091 208.294Z" fill="#E6E6E6"/>
<path d="M522.155 208.294C531.545 208.294 539.157 200.682 539.157 191.292C539.157 181.902 531.545 174.29 522.155 174.29C512.765 174.29 505.153 181.902 505.153 191.292C505.153 200.682 512.765 208.294 522.155 208.294Z" fill="#E6E6E6"/>
<path d="M608.22 208.294C617.61 208.294 625.222 200.682 625.222 191.292C625.222 181.902 617.61 174.29 608.22 174.29C598.83 174.29 591.218 181.902 591.218 191.292C591.218 200.682 598.83 208.294 608.22 208.294Z" fill="#E6E6E6"/>
<path d="M694.284 208.294C703.674 208.294 711.286 200.682 711.286 191.292C711.286 181.902 703.674 174.29 694.284 174.29C684.894 174.29 677.282 181.902 677.282 191.292C677.282 200.682 684.894 208.294 694.284 208.294Z" fill="#E6E6E6"/>
<path d="M780.349 208.294C789.739 208.294 797.351 200.682 797.351 191.292C797.351 181.902 789.739 174.29 780.349 174.29C770.959 174.29 763.347 181.902 763.347 191.292C763.347 200.682 770.959 208.294 780.349 208.294Z" fill="#E6E6E6"/>
<path d="M436.091 295.438C445.482 295.438 453.094 287.825 453.094 278.435C453.094 269.045 445.482 261.433 436.091 261.433C426.701 261.433 419.089 269.045 419.089 278.435C419.089 287.825 426.701 295.438 436.091 295.438Z" fill="#E6E6E6"/>
<path d="M522.155 295.438C531.545 295.438 539.157 287.825 539.157 278.435C539.157 269.045 531.545 261.433 522.155 261.433C512.765 261.433 505.153 269.045 505.153 278.435C505.153 287.825 512.765 295.438 522.155 295.438Z" fill="#E6E6E6"/>
<path d="M608.22 295.438C617.61 295.438 625.222 287.825 625.222 278.435C625.222 269.045 617.61 261.433 608.22 261.433C598.83 261.433 591.218 269.045 591.218 278.435C591.218 287.825 598.83 295.438 608.22 295.438Z" fill="#E6E6E6"/>
<path d="M694.284 295.438C703.674 295.438 711.286 287.825 711.286 278.435C711.286 269.045 703.674 261.433 694.284 261.433C684.894 261.433 677.282 269.045 677.282 278.435C677.282 287.825 684.894 295.438 694.284 295.438Z" fill="#E6E6E6"/>
<path d="M780.349 295.438C789.739 295.438 797.351 287.825 797.351 278.435C797.351 269.045 789.739 261.433 780.349 261.433C770.959 261.433 763.347 269.045 763.347 278.435C763.347 287.825 770.959 295.438 780.349 295.438Z" fill="#E6E6E6"/>
<path d="M866.412 295.438C875.802 295.438 883.414 287.825 883.414 278.435C883.414 269.045 875.802 261.433 866.412 261.433C857.022 261.433 849.41 269.045 849.41 278.435C849.41 287.825 857.022 295.438 866.412 295.438Z" fill="#E6E6E6"/>
<path d="M952.478 295.438C961.868 295.438 969.48 287.825 969.48 278.435C969.48 269.045 961.868 261.433 952.478 261.433C943.088 261.433 935.476 269.045 935.476 278.435C935.476 287.825 943.088 295.438 952.478 295.438Z" fill="#E6E6E6"/>
<path d="M1038.54 295.438C1047.93 295.438 1055.54 287.825 1055.54 278.435C1055.54 269.045 1047.93 261.433 1038.54 261.433C1029.15 261.433 1021.54 269.045 1021.54 278.435C1021.54 287.825 1029.15 295.438 1038.54 295.438Z" fill="#E6E6E6"/>
<path d="M1124.61 295.438C1134 295.438 1141.61 287.825 1141.61 278.435C1141.61 269.045 1134 261.433 1124.61 261.433C1115.22 261.433 1107.6 269.045 1107.6 278.435C1107.6 287.825 1115.22 295.438 1124.61 295.438Z" fill="#E6E6E6"/>
<path d="M1210.67 295.438C1220.06 295.438 1227.67 287.825 1227.67 278.435C1227.67 269.045 1220.06 261.433 1210.67 261.433C1201.28 261.433 1193.67 269.045 1193.67 278.435C1193.67 287.825 1201.28 295.438 1210.67 295.438Z" fill="#E6E6E6"/>
<path d="M780.349 382.584C789.739 382.584 797.351 374.972 797.351 365.582C797.351 356.192 789.739 348.58 780.349 348.58C770.959 348.58 763.347 356.192 763.347 365.582C763.347 374.972 770.959 382.584 780.349 382.584Z" fill="#E6E6E6"/>
<path d="M866.412 382.584C875.802 382.584 883.414 374.972 883.414 365.582C883.414 356.192 875.802 348.58 866.412 348.58C857.022 348.58 849.41 356.192 849.41 365.582C849.41 374.972 857.022 382.584 866.412 382.584Z" fill="white"/>
<path d="M952.478 382.584C961.868 382.584 969.48 374.972 969.48 365.582C969.48 356.192 961.868 348.58 952.478 348.58C943.088 348.58 935.476 356.192 935.476 365.582C935.476 374.972 943.088 382.584 952.478 382.584Z" fill="#E6E6E6"/>
<path d="M1038.54 382.584C1047.93 382.584 1055.54 374.972 1055.54 365.582C1055.54 356.192 1047.93 348.58 1038.54 348.58C1029.15 348.58 1021.54 356.192 1021.54 365.582C1021.54 374.972 1029.15 382.584 1038.54 382.584Z" fill="#E6E6E6"/>
<path d="M1124.61 382.584C1134 382.584 1141.61 374.972 1141.61 365.582C1141.61 356.192 1134 348.58 1124.61 348.58C1115.22 348.58 1107.6 356.192 1107.6 365.582C1107.6 374.972 1115.22 382.584 1124.61 382.584Z" fill="#E6E6E6"/>
<path d="M1210.67 382.584C1220.06 382.584 1227.67 374.972 1227.67 365.582C1227.67 356.192 1220.06 348.58 1210.67 348.58C1201.28 348.58 1193.67 356.192 1193.67 365.582C1193.67 374.972 1201.28 382.584 1210.67 382.584Z" fill="#E6E6E6"/>
<path d="M780.349 469.728C789.739 469.728 797.351 462.116 797.351 452.726C797.351 443.336 789.739 435.724 780.349 435.724C770.959 435.724 763.347 443.336 763.347 452.726C763.347 462.116 770.959 469.728 780.349 469.728Z" fill="#E6E6E6"/>
<path d="M866.412 469.728C875.802 469.728 883.414 462.116 883.414 452.726C883.414 443.336 875.802 435.724 866.412 435.724C857.022 435.724 849.41 443.336 849.41 452.726C849.41 462.116 857.022 469.728 866.412 469.728Z" fill="#E6E6E6"/>
<path d="M952.478 469.728C961.868 469.728 969.48 462.116 969.48 452.726C969.48 443.336 961.868 435.724 952.478 435.724C943.088 435.724 935.476 443.336 935.476 452.726C935.476 462.116 943.088 469.728 952.478 469.728Z" fill="#E6E6E6"/>
<path d="M1038.54 469.728C1047.93 469.728 1055.54 462.116 1055.54 452.726C1055.54 443.336 1047.93 435.724 1038.54 435.724C1029.15 435.724 1021.54 443.336 1021.54 452.726C1021.54 462.116 1029.15 469.728 1038.54 469.728Z" fill="#E6E6E6"/>
<path d="M1124.61 469.728C1134 469.728 1141.61 462.116 1141.61 452.726C1141.61 443.336 1134 435.724 1124.61 435.724C1115.22 435.724 1107.6 443.336 1107.6 452.726C1107.6 462.116 1115.22 469.728 1124.61 469.728Z" fill="white"/>
<path d="M1210.67 469.728C1220.06 469.728 1227.67 462.116 1227.67 452.726C1227.67 443.336 1220.06 435.724 1210.67 435.724C1201.28 435.724 1193.67 443.336 1193.67 452.726C1193.67 462.116 1201.28 469.728 1210.67 469.728Z" fill="#E6E6E6"/>
<path d="M780.349 556.872C789.739 556.872 797.351 549.26 797.351 539.87C797.351 530.48 789.739 522.868 780.349 522.868C770.959 522.868 763.347 530.48 763.347 539.87C763.347 549.26 770.959 556.872 780.349 556.872Z" fill="#E6E6E6"/>
<path d="M866.412 556.872C875.802 556.872 883.414 549.26 883.414 539.87C883.414 530.48 875.802 522.868 866.412 522.868C857.022 522.868 849.41 530.48 849.41 539.87C849.41 549.26 857.022 556.872 866.412 556.872Z" fill="#E6E6E6"/>
<path d="M952.478 556.872C961.868 556.872 969.48 549.26 969.48 539.87C969.48 530.48 961.868 522.868 952.478 522.868C943.088 522.868 935.476 530.48 935.476 539.87C935.476 549.26 943.088 556.872 952.478 556.872Z" fill="#E6E6E6"/>
<path d="M1038.54 556.872C1047.93 556.872 1055.54 549.26 1055.54 539.87C1055.54 530.48 1047.93 522.868 1038.54 522.868C1029.15 522.868 1021.54 530.48 1021.54 539.87C1021.54 549.26 1029.15 556.872 1038.54 556.872Z" fill="#E6E6E6"/>
<path d="M1124.61 556.872C1134 556.872 1141.61 549.26 1141.61 539.87C1141.61 530.48 1134 522.868 1124.61 522.868C1115.22 522.868 1107.6 530.48 1107.6 539.87C1107.6 549.26 1115.22 556.872 1124.61 556.872Z" fill="#E6E6E6"/>
<path d="M1210.67 556.872C1220.06 556.872 1227.67 549.26 1227.67 539.87C1227.67 530.48 1220.06 522.868 1210.67 522.868C1201.28 522.868 1193.67 530.48 1193.67 539.87C1193.67 549.26 1201.28 556.872 1210.67 556.872Z" fill="#E6E6E6"/>
<path d="M436.091 644.017C445.482 644.017 453.094 636.405 453.094 627.015C453.094 617.625 445.482 610.013 436.091 610.013C426.701 610.013 419.089 617.625 419.089 627.015C419.089 636.405 426.701 644.017 436.091 644.017Z" fill="#E6E6E6"/>
<path d="M522.155 644.017C531.545 644.017 539.157 636.405 539.157 627.015C539.157 617.625 531.545 610.013 522.155 610.013C512.765 610.013 505.153 617.625 505.153 627.015C505.153 636.405 512.765 644.017 522.155 644.017Z" fill="#E6E6E6"/>
<path d="M608.22 644.017C617.61 644.017 625.222 636.405 625.222 627.015C625.222 617.625 617.61 610.013 608.22 610.013C598.83 610.013 591.218 617.625 591.218 627.015C591.218 636.405 598.83 644.017 608.22 644.017Z" fill="#E6E6E6"/>
<path d="M694.284 644.017C703.674 644.017 711.286 636.405 711.286 627.015C711.286 617.625 703.674 610.013 694.284 610.013C684.894 610.013 677.282 617.625 677.282 627.015C677.282 636.405 684.894 644.017 694.284 644.017Z" fill="#E6E6E6"/>
<path d="M780.349 644.017C789.739 644.017 797.351 636.405 797.351 627.015C797.351 617.625 789.739 610.013 780.349 610.013C770.959 610.013 763.347 617.625 763.347 627.015C763.347 636.405 770.959 644.017 780.349 644.017Z" fill="#E6E6E6"/>
<path d="M866.412 644.017C875.802 644.017 883.414 636.405 883.414 627.015C883.414 617.625 875.802 610.013 866.412 610.013C857.022 610.013 849.41 617.625 849.41 627.015C849.41 636.405 857.022 644.017 866.412 644.017Z" fill="#E6E6E6"/>
<path d="M952.478 644.017C961.868 644.017 969.48 636.405 969.48 627.015C969.48 617.625 961.868 610.013 952.478 610.013C943.088 610.013 935.476 617.625 935.476 627.015C935.476 636.405 943.088 644.017 952.478 644.017Z" fill="#E6E6E6"/>
<path d="M1038.54 644.017C1047.93 644.017 1055.54 636.405 1055.54 627.015C1055.54 617.625 1047.93 610.013 1038.54 610.013C1029.15 610.013 1021.54 617.625 1021.54 627.015C1021.54 636.405 1029.15 644.017 1038.54 644.017Z" fill="#E6E6E6"/>
<path d="M1124.61 644.017C1134 644.017 1141.61 636.405 1141.61 627.015C1141.61 617.625 1134 610.013 1124.61 610.013C1115.22 610.013 1107.6 617.625 1107.6 627.015C1107.6 636.405 1115.22 644.017 1124.61 644.017Z" fill="#E6E6E6"/>
<path d="M1210.67 644.017C1220.06 644.017 1227.67 636.405 1227.67 627.015C1227.67 617.625 1220.06 610.013 1210.67 610.013C1201.28 610.013 1193.67 617.625 1193.67 627.015C1193.67 636.405 1201.28 644.017 1210.67 644.017Z" fill="#E6E6E6"/>
<path d="M436.081 731.159C445.471 731.159 453.083 723.547 453.083 714.157C453.083 704.767 445.471 697.155 436.081 697.155C426.691 697.155 419.079 704.767 419.079 714.157C419.079 723.547 426.691 731.159 436.081 731.159Z" fill="#E6E6E6"/>
<path d="M522.155 731.161C531.545 731.161 539.157 723.549 539.157 714.159C539.157 704.769 531.545 697.157 522.155 697.157C512.765 697.157 505.153 704.769 505.153 714.159C505.153 723.549 512.765 731.161 522.155 731.161Z" fill="#E6E6E6"/>
<path d="M436.081 818.303C445.471 818.303 453.083 810.691 453.083 801.301C453.083 791.911 445.471 784.299 436.081 784.299C426.691 784.299 419.079 791.911 419.079 801.301C419.079 810.691 426.691 818.303 436.081 818.303Z" fill="#E6E6E6"/>
<path d="M522.155 818.306C531.545 818.306 539.157 810.694 539.157 801.304C539.157 791.914 531.545 784.302 522.155 784.302C512.765 784.302 505.153 791.914 505.153 801.304C505.153 810.694 512.765 818.306 522.155 818.306Z" fill="#E6E6E6"/>
<path d="M694.284 818.306C703.674 818.306 711.286 810.694 711.286 801.304C711.286 791.914 703.674 784.302 694.284 784.302C684.894 784.302 677.282 791.914 677.282 801.304C677.282 810.694 684.894 818.306 694.284 818.306Z" fill="#E6E6E6"/>
<path d="M1552.15 200.591H878.385C875.077 200.587 871.906 199.271 869.567 196.932C867.228 194.593 865.912 191.422 865.908 188.114V20.9824C865.912 17.6745 867.228 14.5032 869.567 12.1641C871.906 9.82505 875.077 8.50925 878.385 8.50537H1552.15C1555.46 8.50925 1558.63 9.82505 1560.97 12.1641C1563.31 14.5032 1564.62 17.6745 1564.63 20.9824V188.114C1564.62 191.422 1563.31 194.593 1560.97 196.932C1558.63 199.272 1555.46 200.587 1552.15 200.591ZM878.385 13.4962C876.4 13.4984 874.498 14.2878 873.094 15.6913C871.691 17.0947 870.901 18.9976 870.899 20.9824V188.114C870.901 190.099 871.691 192.002 873.094 193.405C874.498 194.809 876.4 195.598 878.385 195.6H1552.15C1554.13 195.598 1556.04 194.809 1557.44 193.405C1558.84 192.002 1559.63 190.099 1559.63 188.114V20.9824C1559.63 18.9976 1558.84 17.0947 1557.44 15.6913C1556.04 14.2878 1554.13 13.4984 1552.15 13.4962H878.385Z" fill="#E6E6E6"/>
<path d="M965.725 156.951C994.667 156.951 1018.13 133.489 1018.13 104.548C1018.13 75.606 994.667 52.144 965.725 52.144C936.783 52.144 913.321 75.606 913.321 104.548C913.321 133.489 936.783 156.951 965.725 156.951Z" fill="white"/>
<path d="M1086.75 69.6118C1084.44 69.6118 1082.21 70.532 1080.58 72.1699C1078.94 73.8078 1078.02 76.0294 1078.02 78.3458C1078.02 80.6621 1078.94 82.8837 1080.58 84.5216C1082.21 86.1595 1084.44 87.0797 1086.75 87.0797H1318.83C1321.14 87.0797 1323.36 86.1595 1325 84.5216C1326.64 82.8837 1327.56 80.6621 1327.56 78.3458C1327.56 76.0294 1326.64 73.8078 1325 72.1699C1323.36 70.532 1321.14 69.6118 1318.83 69.6118H1086.75Z" fill="#E6E6E6"/>
<path d="M1086.75 122.015C1084.44 122.015 1082.21 122.936 1080.58 124.573C1078.94 126.211 1078.02 128.433 1078.02 130.749C1078.02 133.066 1078.94 135.287 1080.58 136.925C1082.21 138.563 1084.44 139.483 1086.75 139.483H1498.5C1500.81 139.483 1503.03 138.563 1504.67 136.925C1506.31 135.287 1507.23 133.066 1507.23 130.749C1507.23 128.433 1506.31 126.211 1504.67 124.573C1503.03 122.936 1500.81 122.015 1498.5 122.015H1086.75Z" fill="#E6E6E6"/>
<path d="M686.24 539.967H12.4771C9.16913 539.963 5.99781 538.647 3.65874 536.308C1.31968 533.969 0.00387669 530.798 0 527.49V360.358C0.00387669 357.05 1.31968 353.879 3.65874 351.54C5.99781 349.201 9.16913 347.885 12.4771 347.881H686.24C689.548 347.885 692.719 349.201 695.058 351.54C697.397 353.879 698.713 357.05 698.717 360.358V527.49C698.713 530.798 697.397 533.969 695.058 536.308C692.719 538.647 689.548 539.963 686.24 539.967ZM12.4771 352.872C10.4923 352.874 8.58936 353.664 7.18589 355.067C5.78242 356.471 4.99299 358.374 4.99083 360.358V527.49C4.99299 529.475 5.78242 531.378 7.18589 532.781C8.58936 534.185 10.4923 534.974 12.4771 534.976H686.24C688.225 534.974 690.128 534.185 691.531 532.781C692.935 531.378 693.724 529.475 693.726 527.49V360.358C693.724 358.374 692.935 356.471 691.531 355.067C690.128 353.664 688.225 352.874 686.24 352.872H12.4771Z" fill="#E6E6E6"/>
<path d="M99.8168 496.327C128.759 496.327 152.22 472.865 152.22 443.924C152.22 414.982 128.759 391.52 99.8168 391.52C70.875 391.52 47.4131 414.982 47.4131 443.924C47.4131 472.865 70.875 496.327 99.8168 496.327Z" fill="white"/>
<path d="M220.844 408.988C218.527 408.988 216.306 409.909 214.668 411.546C213.03 413.184 212.11 415.406 212.11 417.722C212.11 420.039 213.03 422.26 214.668 423.898C216.306 425.536 218.527 426.456 220.844 426.456H462.899C465.215 426.456 467.437 425.536 469.075 423.898C470.713 422.26 471.633 420.039 471.633 417.722C471.633 415.406 470.713 413.184 469.075 411.546C467.437 409.909 465.215 408.988 462.899 408.988H220.844Z" fill="#E6E6E6"/>
<path d="M220.844 461.392C218.527 461.392 216.306 462.312 214.668 463.95C213.03 465.588 212.11 467.809 212.11 470.126C212.11 472.442 213.03 474.663 214.668 476.301C216.306 477.939 218.527 478.859 220.844 478.859H632.587C634.903 478.859 637.125 477.939 638.763 476.301C640.401 474.663 641.321 472.442 641.321 470.126C641.321 467.809 640.401 465.588 638.763 463.95C637.125 462.312 634.903 461.392 632.587 461.392H220.844Z" fill="#E6E6E6"/>
<path d="M1295.12 906.793H621.358C618.05 906.789 614.879 905.473 612.54 903.134C610.201 900.795 608.885 897.623 608.881 894.315V727.184C608.885 723.876 610.201 720.705 612.54 718.366C614.879 716.026 618.05 714.711 621.358 714.707H1295.12C1298.43 714.711 1301.6 716.026 1303.94 718.366C1306.28 720.705 1307.59 723.876 1307.6 727.184V894.316C1307.59 897.624 1306.28 900.795 1303.94 903.134C1301.6 905.473 1298.43 906.789 1295.12 906.793ZM621.358 719.698C619.373 719.7 617.47 720.489 616.067 721.893C614.663 723.296 613.874 725.199 613.872 727.184V894.316C613.874 896.3 614.663 898.203 616.067 899.607C617.47 901.01 619.373 901.8 621.358 901.802H1295.12C1297.11 901.8 1299.01 901.01 1300.41 899.607C1301.82 898.203 1302.6 896.3 1302.61 894.316V727.184C1302.6 725.199 1301.82 723.296 1300.41 721.893C1299.01 720.489 1297.11 719.7 1295.12 719.698H621.358Z" fill="#3F3D56"/>
<path d="M708.697 863.154C737.639 863.154 761.101 839.692 761.101 810.75C761.101 781.808 737.639 758.346 708.697 758.346C679.755 758.346 656.293 781.808 656.293 810.75C656.293 839.692 679.755 863.154 708.697 863.154Z" fill="white"/>
<path d="M829.726 775.814C827.409 775.814 825.188 776.734 823.55 778.372C821.912 780.01 820.992 782.231 820.992 784.548C820.992 786.864 821.912 789.086 823.55 790.724C825.188 792.361 827.409 793.282 829.726 793.282H1051.82C1054.13 793.282 1056.36 792.361 1057.99 790.724C1059.63 789.086 1060.55 786.864 1060.55 784.548C1060.55 782.231 1059.63 780.01 1057.99 778.372C1056.36 776.734 1054.13 775.814 1051.82 775.814H829.726Z" fill="#E6E6E6"/>
<path d="M829.726 828.218C827.409 828.218 825.188 829.138 823.55 830.776C821.912 832.414 820.992 834.635 820.992 836.951C820.992 839.268 821.912 841.489 823.55 843.127C825.188 844.765 827.409 845.685 829.726 845.685H1241.47C1243.79 845.685 1246.01 844.765 1247.64 843.127C1249.28 841.489 1250.2 839.268 1250.2 836.951C1250.2 834.635 1249.28 832.414 1247.64 830.776C1246.01 829.138 1243.79 828.218 1241.47 828.218H829.726Z" fill="#E6E6E6"/>
<path d="M1657.58 864.406C1628.32 952.188 1508.61 859.086 1508.61 859.086L1540.53 526.579C1588.42 489.338 1638.96 521.259 1638.96 521.259L1657.58 864.406Z" fill="#E6E6E6"/>
<path d="M1651.29 1159.01L1692.08 1159.44L1681.89 1277.02L1651.3 1277.02L1651.29 1159.01Z" fill="#FFB8B8"/>
<path d="M1643.49 1267.03H1703.74C1713.92 1267.04 1723.68 1271.09 1730.88 1278.29C1738.08 1285.48 1742.13 1295.24 1742.14 1305.42V1306.67H1643.49V1267.03Z" fill="#575762"/>
<path d="M1540.72 1159.01L1495.57 1159.01L1510.12 1277.02L1540.72 1277.02L1540.72 1159.01Z" fill="#FFB8B8"/>
<path d="M1449.87 1306.67V1305.42C1449.87 1295.24 1453.92 1285.47 1461.12 1278.27C1468.32 1271.07 1478.09 1267.03 1488.27 1267.03L1548.52 1267.03L1548.52 1306.67L1449.87 1306.67Z" fill="#575762"/>
<path d="M1648.54 1256.65L1595.1 945.165L1545.6 1252.63L1495.44 1255.42L1482.06 843.464L1483.07 843.239C1491.36 841.382 1686.54 798.514 1718.53 859.839L1718.7 860.15L1691.99 1258.05L1648.54 1256.65Z" fill="#575762"/>
<path d="M1591.91 487.612C1625.76 487.612 1653.2 460.172 1653.2 426.322C1653.2 392.473 1625.76 365.032 1591.91 365.032C1558.06 365.032 1530.62 392.473 1530.62 426.322C1530.62 460.172 1558.06 487.612 1591.91 487.612Z" fill="#FFB8B8"/>
<path d="M1643.4 890.674C1636.21 888.684 1631.04 880.434 1627.11 864.708C1626.43 861.997 1562.79 590.933 1616.61 541.823L1629.01 507.366L1645.99 518.683C1651.99 518.739 1713.41 520.294 1718.66 559.665C1723.8 598.202 1737.79 856.402 1723.73 872.463C1723.46 872.816 1723.11 873.105 1722.71 873.307C1722.31 873.51 1721.87 873.621 1721.42 873.634C1707.17 873.634 1702.84 857.822 1701.83 852.782C1698.44 854.186 1688.34 859.342 1671.76 875.928C1661.49 886.202 1653.43 891.126 1646.77 891.126C1645.63 891.129 1644.5 890.977 1643.4 890.674Z" fill="#575762"/>
<path d="M1510.39 875.929C1493.8 859.338 1483.71 854.183 1480.32 852.783C1479.31 857.822 1474.98 873.634 1460.73 873.634C1460.28 873.622 1459.84 873.51 1459.44 873.308C1459.04 873.105 1458.69 872.817 1458.42 872.464C1444.36 856.404 1458.35 598.204 1463.49 559.666C1468.73 520.295 1530.16 518.74 1536.16 518.684L1553.14 507.367L1565.54 541.824C1619.35 590.93 1555.72 861.998 1555.04 864.709C1551.11 880.435 1545.94 888.685 1538.75 890.675C1537.65 890.978 1536.52 891.13 1535.38 891.127C1528.72 891.127 1520.66 886.202 1510.39 875.929Z" fill="#575762"/>
<path d="M1642.51 461.333C1652.88 453.874 1660.73 443.436 1665.02 431.407C1669.31 419.377 1669.84 406.326 1666.53 393.989C1663.23 381.653 1656.24 370.615 1646.51 362.345C1636.78 354.075 1624.76 348.964 1612.05 347.691C1606.4 347.127 1600.33 347.211 1595.65 344.006C1591.49 341.16 1589.26 336.223 1585.44 332.938C1583.01 331.061 1580.22 329.705 1577.25 328.956C1574.28 328.206 1571.18 328.078 1568.15 328.581C1562.11 329.622 1556.26 331.545 1550.78 334.289C1537.19 340.348 1522.74 347.806 1516.56 361.339C1511.2 373.062 1513.56 387.518 1521.15 397.94C1529.12 408.255 1540.75 415.119 1553.63 417.119C1566.44 419.032 1579.51 417.854 1591.77 413.684C1599.86 411.139 1607.85 407.671 1616.32 407.387C1622.94 407.166 1629.47 408.918 1635.08 412.419C1640.7 415.92 1645.15 421.013 1647.86 427.05C1650.58 433.086 1651.44 439.794 1650.33 446.319C1649.22 452.844 1646.19 458.893 1641.64 463.694" fill="#575762"/>
<path d="M1308.45 825.935C1311.99 825.853 1315.48 825.075 1318.71 823.645C1321.95 822.215 1324.88 820.162 1327.32 817.602C1329.76 815.042 1331.68 812.025 1332.96 808.724C1334.24 805.424 1334.85 801.904 1334.77 798.365L1370.51 738.061L1342.9 712.742L1305.25 772.159C1298.3 772.827 1291.88 776.163 1287.34 781.466C1282.81 786.769 1280.5 793.625 1280.92 800.592C1281.33 807.558 1284.43 814.093 1289.57 818.819C1294.7 823.546 1301.47 826.097 1308.45 825.935V825.935Z" fill="#FFB8B8"/>
<path d="M1723.12 892C1726.08 890.067 1728.64 887.569 1730.64 884.648C1732.64 881.728 1734.04 878.442 1734.77 874.979C1735.5 871.515 1735.54 867.942 1734.89 864.463C1734.24 860.984 1732.91 857.667 1730.98 854.702L1729.61 784.614L1692.8 777.632L1692.08 847.969C1686.52 852.195 1682.82 858.41 1681.76 865.308C1680.69 872.205 1682.35 879.246 1686.37 884.951C1690.39 890.655 1696.47 894.577 1703.32 895.892C1710.17 897.206 1717.27 895.811 1723.12 892V892Z" fill="#FFB8B8"/>
<path d="M1319.32 728.968L1318.91 728.306L1319.32 727.643C1372.93 641.554 1485.46 534.015 1486.59 532.938L1486.95 532.6L1500.85 532.457L1515.87 569.888C1511.19 578.887 1385.12 754.823 1368.47 766.492C1367.15 767.41 1365.65 768.039 1364.06 768.337C1362.48 768.635 1360.85 768.597 1359.28 768.224C1356.51 767.585 1353.87 766.461 1351.48 764.904C1336.12 755.389 1320.11 730.213 1319.32 728.968Z" fill="#575762"/>
<path d="M1685.79 827.205C1684.3 826.695 1682.93 825.881 1681.77 824.814C1680.6 823.747 1679.68 822.45 1679.04 821.005C1671.01 802.278 1705.41 565.719 1706.88 555.658L1707.16 553.755L1718.79 561.124L1718.9 561.626C1719.25 563.137 1753.12 713.839 1743.94 813.977L1743.87 814.694L1743.22 814.996C1741.82 815.644 1713.61 828.603 1694.8 828.603C1691.74 828.683 1688.69 828.209 1685.79 827.205V827.205Z" fill="#575762"/>
<path d="M1917.51 1308.53H1253.73C1253.06 1308.53 1252.43 1308.27 1251.96 1307.8C1251.49 1307.33 1251.23 1306.7 1251.23 1306.04C1251.23 1305.37 1251.49 1304.74 1251.96 1304.27C1252.43 1303.8 1253.06 1303.54 1253.73 1303.54H1917.51C1918.17 1303.54 1918.8 1303.8 1919.27 1304.27C1919.74 1304.74 1920 1305.37 1920 1306.04C1920 1306.7 1919.74 1307.33 1919.27 1307.8C1918.8 1308.27 1918.17 1308.53 1917.51 1308.53Z" fill="#3F3D56"/>
</svg>
