<svg width="1920" height="1309" viewBox="0 0 1920 1309" fill="none" xmlns="http://www.w3.org/2000/svg">
<path d="M436.091 34.0043C445.482 34.0043 453.094 26.3921 453.094 17.0021C453.094 7.61211 445.482 0 436.091 0C426.701 0 419.089 7.61211 419.089 17.0021C419.089 26.3921 426.701 34.0043 436.091 34.0043Z" fill="#E6E6E6"/>
<path d="M522.155 34.0043C531.545 34.0043 539.158 26.3921 539.158 17.0021C539.158 7.61211 531.545 0 522.155 0C512.765 0 505.153 7.61211 505.153 17.0021C505.153 26.3921 512.765 34.0043 522.155 34.0043Z" fill="#E6E6E6"/>
<path d="M608.22 34.0043C617.61 34.0043 625.223 26.3921 625.223 17.0021C625.223 7.61211 617.61 0 608.22 0C598.83 0 591.218 7.61211 591.218 17.0021C591.218 26.3921 598.83 34.0043 608.22 34.0043Z" fill="#E6E6E6"/>
<path d="M694.285 34.0043C703.675 34.0043 711.287 26.3921 711.287 17.0021C711.287 7.61211 703.675 0 694.285 0C684.895 0 677.282 7.61211 677.282 17.0021C677.282 26.3921 684.895 34.0043 694.285 34.0043Z" fill="#E6E6E6"/>
<path d="M780.349 34.0043C789.739 34.0043 797.351 26.3921 797.351 17.0021C797.351 7.61211 789.739 0 780.349 0C770.959 0 763.347 7.61211 763.347 17.0021C763.347 26.3921 770.959 34.0043 780.349 34.0043Z" fill="#E6E6E6"/>
<path d="M436.091 121.149C445.482 121.149 453.094 113.537 453.094 104.147C453.094 94.7568 445.482 87.1447 436.091 87.1447C426.701 87.1447 419.089 94.7568 419.089 104.147C419.089 113.537 426.701 121.149 436.091 121.149Z" fill="#E6E6E6"/>
<path d="M522.155 121.149C531.545 121.149 539.158 113.537 539.158 104.147C539.158 94.7568 531.545 87.1447 522.155 87.1447C512.765 87.1447 505.153 94.7568 505.153 104.147C505.153 113.537 512.765 121.149 522.155 121.149Z" fill="#E6E6E6"/>
<path d="M608.22 121.149C617.61 121.149 625.223 113.537 625.223 104.147C625.223 94.7568 617.61 87.1447 608.22 87.1447C598.83 87.1447 591.218 94.7568 591.218 104.147C591.218 113.537 598.83 121.149 608.22 121.149Z" fill="#E6E6E6"/>
<path d="M694.285 121.149C703.675 121.149 711.287 113.537 711.287 104.147C711.287 94.7568 703.675 87.1447 694.285 87.1447C684.895 87.1447 677.282 94.7568 677.282 104.147C677.282 113.537 684.895 121.149 694.285 121.149Z" fill="#303030"/>
<path d="M780.349 121.149C789.739 121.149 797.351 113.537 797.351 104.147C797.351 94.7568 789.739 87.1447 780.349 87.1447C770.959 87.1447 763.347 94.7568 763.347 104.147C763.347 113.537 770.959 121.149 780.349 121.149Z" fill="#E6E6E6"/>
<path d="M952.478 121.149C961.868 121.149 969.48 113.537 969.48 104.147C969.48 94.7568 961.868 87.1447 952.478 87.1447C943.088 87.1447 935.476 94.7568 935.476 104.147C935.476 113.537 943.088 121.149 952.478 121.149Z" fill="#E6E6E6"/>
<path d="M436.091 208.294C445.482 208.294 453.094 200.682 453.094 191.292C453.094 181.902 445.482 174.289 436.091 174.289C426.701 174.289 419.089 181.902 419.089 191.292C419.089 200.682 426.701 208.294 436.091 208.294Z" fill="#E6E6E6"/>
<path d="M522.155 208.294C531.545 208.294 539.158 200.682 539.158 191.292C539.158 181.902 531.545 174.289 522.155 174.289C512.765 174.289 505.153 181.902 505.153 191.292C505.153 200.682 512.765 208.294 522.155 208.294Z" fill="#E6E6E6"/>
<path d="M608.22 208.294C617.61 208.294 625.223 200.682 625.223 191.292C625.223 181.902 617.61 174.289 608.22 174.289C598.83 174.289 591.218 181.902 591.218 191.292C591.218 200.682 598.83 208.294 608.22 208.294Z" fill="#E6E6E6"/>
<path d="M694.285 208.294C703.675 208.294 711.287 200.682 711.287 191.292C711.287 181.902 703.675 174.289 694.285 174.289C684.895 174.289 677.282 181.902 677.282 191.292C677.282 200.682 684.895 208.294 694.285 208.294Z" fill="#E6E6E6"/>
<path d="M780.349 208.294C789.739 208.294 797.351 200.682 797.351 191.292C797.351 181.902 789.739 174.289 780.349 174.289C770.959 174.289 763.347 181.902 763.347 191.292C763.347 200.682 770.959 208.294 780.349 208.294Z" fill="#E6E6E6"/>
<path d="M436.091 295.438C445.482 295.438 453.094 287.826 453.094 278.436C453.094 269.046 445.482 261.434 436.091 261.434C426.701 261.434 419.089 269.046 419.089 278.436C419.089 287.826 426.701 295.438 436.091 295.438Z" fill="#E6E6E6"/>
<path d="M522.155 295.438C531.545 295.438 539.158 287.826 539.158 278.436C539.158 269.046 531.545 261.434 522.155 261.434C512.765 261.434 505.153 269.046 505.153 278.436C505.153 287.826 512.765 295.438 522.155 295.438Z" fill="#E6E6E6"/>
<path d="M608.22 295.438C617.61 295.438 625.223 287.826 625.223 278.436C625.223 269.046 617.61 261.434 608.22 261.434C598.83 261.434 591.218 269.046 591.218 278.436C591.218 287.826 598.83 295.438 608.22 295.438Z" fill="#E6E6E6"/>
<path d="M694.285 295.438C703.675 295.438 711.287 287.826 711.287 278.436C711.287 269.046 703.675 261.434 694.285 261.434C684.895 261.434 677.282 269.046 677.282 278.436C677.282 287.826 684.895 295.438 694.285 295.438Z" fill="#E6E6E6"/>
<path d="M780.349 295.438C789.739 295.438 797.351 287.826 797.351 278.436C797.351 269.046 789.739 261.434 780.349 261.434C770.959 261.434 763.347 269.046 763.347 278.436C763.347 287.826 770.959 295.438 780.349 295.438Z" fill="#E6E6E6"/>
<path d="M866.414 295.438C875.804 295.438 883.416 287.826 883.416 278.436C883.416 269.046 875.804 261.434 866.414 261.434C857.024 261.434 849.411 269.046 849.411 278.436C849.411 287.826 857.024 295.438 866.414 295.438Z" fill="#E6E6E6"/>
<path d="M952.478 295.438C961.868 295.438 969.48 287.826 969.48 278.436C969.48 269.046 961.868 261.434 952.478 261.434C943.088 261.434 935.476 269.046 935.476 278.436C935.476 287.826 943.088 295.438 952.478 295.438Z" fill="#E6E6E6"/>
<path d="M1038.54 295.438C1047.93 295.438 1055.54 287.826 1055.54 278.436C1055.54 269.046 1047.93 261.434 1038.54 261.434C1029.15 261.434 1021.54 269.046 1021.54 278.436C1021.54 287.826 1029.15 295.438 1038.54 295.438Z" fill="#E6E6E6"/>
<path d="M1124.61 295.438C1134 295.438 1141.61 287.826 1141.61 278.436C1141.61 269.046 1134 261.434 1124.61 261.434C1115.22 261.434 1107.6 269.046 1107.6 278.436C1107.6 287.826 1115.22 295.438 1124.61 295.438Z" fill="#E6E6E6"/>
<path d="M1210.67 295.438C1220.06 295.438 1227.67 287.826 1227.67 278.436C1227.67 269.046 1220.06 261.434 1210.67 261.434C1201.28 261.434 1193.67 269.046 1193.67 278.436C1193.67 287.826 1201.28 295.438 1210.67 295.438Z" fill="#E6E6E6"/>
<path d="M780.349 382.583C789.739 382.583 797.351 374.971 797.351 365.581C797.351 356.191 789.739 348.579 780.349 348.579C770.959 348.579 763.347 356.191 763.347 365.581C763.347 374.971 770.959 382.583 780.349 382.583Z" fill="#E6E6E6"/>
<path d="M866.414 382.583C875.804 382.583 883.416 374.971 883.416 365.581C883.416 356.191 875.804 348.579 866.414 348.579C857.024 348.579 849.411 356.191 849.411 365.581C849.411 374.971 857.024 382.583 866.414 382.583Z" fill="#303030"/>
<path d="M952.478 382.583C961.868 382.583 969.48 374.971 969.48 365.581C969.48 356.191 961.868 348.579 952.478 348.579C943.088 348.579 935.476 356.191 935.476 365.581C935.476 374.971 943.088 382.583 952.478 382.583Z" fill="#E6E6E6"/>
<path d="M1038.54 382.583C1047.93 382.583 1055.54 374.971 1055.54 365.581C1055.54 356.191 1047.93 348.579 1038.54 348.579C1029.15 348.579 1021.54 356.191 1021.54 365.581C1021.54 374.971 1029.15 382.583 1038.54 382.583Z" fill="#E6E6E6"/>
<path d="M1124.61 382.583C1134 382.583 1141.61 374.971 1141.61 365.581C1141.61 356.191 1134 348.579 1124.61 348.579C1115.22 348.579 1107.6 356.191 1107.6 365.581C1107.6 374.971 1115.22 382.583 1124.61 382.583Z" fill="#E6E6E6"/>
<path d="M1210.67 382.583C1220.06 382.583 1227.67 374.971 1227.67 365.581C1227.67 356.191 1220.06 348.579 1210.67 348.579C1201.28 348.579 1193.67 356.191 1193.67 365.581C1193.67 374.971 1201.28 382.583 1210.67 382.583Z" fill="#E6E6E6"/>
<path d="M780.349 469.728C789.739 469.728 797.351 462.116 797.351 452.726C797.351 443.336 789.739 435.724 780.349 435.724C770.959 435.724 763.347 443.336 763.347 452.726C763.347 462.116 770.959 469.728 780.349 469.728Z" fill="#E6E6E6"/>
<path d="M866.414 469.728C875.804 469.728 883.416 462.116 883.416 452.726C883.416 443.336 875.804 435.724 866.414 435.724C857.024 435.724 849.411 443.336 849.411 452.726C849.411 462.116 857.024 469.728 866.414 469.728Z" fill="#E6E6E6"/>
<path d="M952.478 469.728C961.868 469.728 969.48 462.116 969.48 452.726C969.48 443.336 961.868 435.724 952.478 435.724C943.088 435.724 935.476 443.336 935.476 452.726C935.476 462.116 943.088 469.728 952.478 469.728Z" fill="#E6E6E6"/>
<path d="M1038.54 469.728C1047.93 469.728 1055.54 462.116 1055.54 452.726C1055.54 443.336 1047.93 435.724 1038.54 435.724C1029.15 435.724 1021.54 443.336 1021.54 452.726C1021.54 462.116 1029.15 469.728 1038.54 469.728Z" fill="#E6E6E6"/>
<path d="M1124.61 469.728C1134 469.728 1141.61 462.116 1141.61 452.726C1141.61 443.336 1134 435.724 1124.61 435.724C1115.22 435.724 1107.6 443.336 1107.6 452.726C1107.6 462.116 1115.22 469.728 1124.61 469.728Z" fill="#303030"/>
<path d="M1210.67 469.728C1220.06 469.728 1227.67 462.116 1227.67 452.726C1227.67 443.336 1220.06 435.724 1210.67 435.724C1201.28 435.724 1193.67 443.336 1193.67 452.726C1193.67 462.116 1201.28 469.728 1210.67 469.728Z" fill="#E6E6E6"/>
<path d="M780.349 556.873C789.739 556.873 797.351 549.26 797.351 539.87C797.351 530.48 789.739 522.868 780.349 522.868C770.959 522.868 763.347 530.48 763.347 539.87C763.347 549.26 770.959 556.873 780.349 556.873Z" fill="#E6E6E6"/>
<path d="M866.414 556.873C875.804 556.873 883.416 549.26 883.416 539.87C883.416 530.48 875.804 522.868 866.414 522.868C857.024 522.868 849.411 530.48 849.411 539.87C849.411 549.26 857.024 556.873 866.414 556.873Z" fill="#E6E6E6"/>
<path d="M952.478 556.873C961.868 556.873 969.48 549.26 969.48 539.87C969.48 530.48 961.868 522.868 952.478 522.868C943.088 522.868 935.476 530.48 935.476 539.87C935.476 549.26 943.088 556.873 952.478 556.873Z" fill="#E6E6E6"/>
<path d="M1038.54 556.873C1047.93 556.873 1055.54 549.26 1055.54 539.87C1055.54 530.48 1047.93 522.868 1038.54 522.868C1029.15 522.868 1021.54 530.48 1021.54 539.87C1021.54 549.26 1029.15 556.873 1038.54 556.873Z" fill="#E6E6E6"/>
<path d="M1124.61 556.873C1134 556.873 1141.61 549.26 1141.61 539.87C1141.61 530.48 1134 522.868 1124.61 522.868C1115.22 522.868 1107.6 530.48 1107.6 539.87C1107.6 549.26 1115.22 556.873 1124.61 556.873Z" fill="#E6E6E6"/>
<path d="M1210.67 556.873C1220.06 556.873 1227.67 549.26 1227.67 539.87C1227.67 530.48 1220.06 522.868 1210.67 522.868C1201.28 522.868 1193.67 530.48 1193.67 539.87C1193.67 549.26 1201.28 556.873 1210.67 556.873Z" fill="#E6E6E6"/>
<path d="M436.091 644.017C445.482 644.017 453.094 636.405 453.094 627.015C453.094 617.625 445.482 610.013 436.091 610.013C426.701 610.013 419.089 617.625 419.089 627.015C419.089 636.405 426.701 644.017 436.091 644.017Z" fill="#E6E6E6"/>
<path d="M522.155 644.017C531.545 644.017 539.158 636.405 539.158 627.015C539.158 617.625 531.545 610.013 522.155 610.013C512.765 610.013 505.153 617.625 505.153 627.015C505.153 636.405 512.765 644.017 522.155 644.017Z" fill="#E6E6E6"/>
<path d="M608.22 644.017C617.61 644.017 625.223 636.405 625.223 627.015C625.223 617.625 617.61 610.013 608.22 610.013C598.83 610.013 591.218 617.625 591.218 627.015C591.218 636.405 598.83 644.017 608.22 644.017Z" fill="#E6E6E6"/>
<path d="M694.285 644.017C703.675 644.017 711.287 636.405 711.287 627.015C711.287 617.625 703.675 610.013 694.285 610.013C684.895 610.013 677.282 617.625 677.282 627.015C677.282 636.405 684.895 644.017 694.285 644.017Z" fill="#E6E6E6"/>
<path d="M780.349 644.017C789.739 644.017 797.351 636.405 797.351 627.015C797.351 617.625 789.739 610.013 780.349 610.013C770.959 610.013 763.347 617.625 763.347 627.015C763.347 636.405 770.959 644.017 780.349 644.017Z" fill="#E6E6E6"/>
<path d="M866.414 644.017C875.804 644.017 883.416 636.405 883.416 627.015C883.416 617.625 875.804 610.013 866.414 610.013C857.024 610.013 849.411 617.625 849.411 627.015C849.411 636.405 857.024 644.017 866.414 644.017Z" fill="#E6E6E6"/>
<path d="M952.478 644.017C961.868 644.017 969.48 636.405 969.48 627.015C969.48 617.625 961.868 610.013 952.478 610.013C943.088 610.013 935.476 617.625 935.476 627.015C935.476 636.405 943.088 644.017 952.478 644.017Z" fill="#E6E6E6"/>
<path d="M1038.54 644.017C1047.93 644.017 1055.54 636.405 1055.54 627.015C1055.54 617.625 1047.93 610.013 1038.54 610.013C1029.15 610.013 1021.54 617.625 1021.54 627.015C1021.54 636.405 1029.15 644.017 1038.54 644.017Z" fill="#E6E6E6"/>
<path d="M1124.61 644.017C1134 644.017 1141.61 636.405 1141.61 627.015C1141.61 617.625 1134 610.013 1124.61 610.013C1115.22 610.013 1107.6 617.625 1107.6 627.015C1107.6 636.405 1115.22 644.017 1124.61 644.017Z" fill="#E6E6E6"/>
<path d="M1210.67 644.017C1220.06 644.017 1227.67 636.405 1227.67 627.015C1227.67 617.625 1220.06 610.013 1210.67 610.013C1201.28 610.013 1193.67 617.625 1193.67 627.015C1193.67 636.405 1201.28 644.017 1210.67 644.017Z" fill="#E6E6E6"/>
<path d="M436.081 731.159C445.471 731.159 453.083 723.547 453.083 714.157C453.083 704.767 445.471 697.155 436.081 697.155C426.691 697.155 419.079 704.767 419.079 714.157C419.079 723.547 426.691 731.159 436.081 731.159Z" fill="#E6E6E6"/>
<path d="M522.155 731.162C531.545 731.162 539.158 723.55 539.158 714.16C539.158 704.77 531.545 697.158 522.155 697.158C512.765 697.158 505.153 704.77 505.153 714.16C505.153 723.55 512.765 731.162 522.155 731.162Z" fill="#E6E6E6"/>
<path d="M436.081 818.304C445.471 818.304 453.083 810.691 453.083 801.301C453.083 791.911 445.471 784.299 436.081 784.299C426.691 784.299 419.079 791.911 419.079 801.301C419.079 810.691 426.691 818.304 436.081 818.304Z" fill="#E6E6E6"/>
<path d="M522.155 818.307C531.545 818.307 539.158 810.695 539.158 801.305C539.158 791.914 531.545 784.302 522.155 784.302C512.765 784.302 505.153 791.914 505.153 801.305C505.153 810.695 512.765 818.307 522.155 818.307Z" fill="#E6E6E6"/>
<path d="M694.285 818.307C703.675 818.307 711.287 810.695 711.287 801.305C711.287 791.914 703.675 784.302 694.285 784.302C684.895 784.302 677.282 791.914 677.282 801.305C677.282 810.695 684.895 818.307 694.285 818.307Z" fill="#E6E6E6"/>
<path d="M1552.15 200.591H878.386C875.078 200.587 871.907 199.271 869.567 196.932C867.228 194.593 865.913 191.422 865.909 188.114V20.9823C865.913 17.6744 867.228 14.5031 869.567 12.164C871.906 9.82493 875.078 8.50913 878.386 8.50525H1552.15C1555.46 8.50913 1558.63 9.82493 1560.97 12.164C1563.31 14.5031 1564.62 17.6744 1564.63 20.9823V188.114C1564.62 191.422 1563.31 194.593 1560.97 196.932C1558.63 199.271 1555.46 200.587 1552.15 200.591ZM878.386 13.4961C876.401 13.4982 874.498 14.2877 873.095 15.6911C871.691 17.0946 870.902 18.9975 870.9 20.9823V188.114C870.902 190.099 871.691 192.002 873.095 193.405C874.498 194.809 876.401 195.598 878.386 195.6H1552.15C1554.13 195.598 1556.04 194.809 1557.44 193.405C1558.84 192.002 1559.63 190.099 1559.64 188.114V20.9823C1559.63 18.9975 1558.84 17.0946 1557.44 15.6911C1556.04 14.2877 1554.13 13.4982 1552.15 13.4961H878.386Z" fill="#E6E6E6"/>
<path d="M965.725 156.951C994.667 156.951 1018.13 133.489 1018.13 104.548C1018.13 75.6058 994.667 52.1439 965.725 52.1439C936.783 52.1439 913.322 75.6058 913.322 104.548C913.322 133.489 936.783 156.951 965.725 156.951Z" fill="#303030"/>
<path d="M1086.75 69.6118C1084.44 69.6118 1082.22 70.5319 1080.58 72.1698C1078.94 73.8078 1078.02 76.0293 1078.02 78.3457C1078.02 80.6621 1078.94 82.8836 1080.58 84.5215C1082.22 86.1595 1084.44 87.0797 1086.75 87.0797H1318.83C1321.14 87.0797 1323.36 86.1595 1325 84.5215C1326.64 82.8836 1327.56 80.6621 1327.56 78.3457C1327.56 76.0293 1326.64 73.8078 1325 72.1698C1323.36 70.5319 1321.14 69.6118 1318.83 69.6118H1086.75Z" fill="#E6E6E6"/>
<path d="M1086.75 122.015C1084.44 122.015 1082.22 122.936 1080.58 124.574C1078.94 126.211 1078.02 128.433 1078.02 130.749C1078.02 133.066 1078.94 135.287 1080.58 136.925C1082.22 138.563 1084.44 139.483 1086.75 139.483H1498.5C1500.81 139.483 1503.03 138.563 1504.67 136.925C1506.31 135.287 1507.23 133.066 1507.23 130.749C1507.23 128.433 1506.31 126.211 1504.67 124.574C1503.03 122.936 1500.81 122.015 1498.5 122.015H1086.75Z" fill="#E6E6E6"/>
<path d="M686.24 539.967H12.4771C9.16914 539.964 5.99781 538.648 3.65874 536.309C1.31968 533.97 0.00387669 530.798 0 527.49V360.359C0.00387669 357.051 1.31968 353.879 3.65874 351.54C5.99781 349.201 9.16914 347.886 12.4771 347.882H686.24C689.548 347.886 692.719 349.201 695.058 351.54C697.397 353.879 698.713 357.051 698.717 360.359V527.491C698.713 530.798 697.397 533.97 695.058 536.309C692.719 538.648 689.548 539.964 686.24 539.967ZM12.4771 352.872C10.4923 352.875 8.58936 353.664 7.18589 355.068C5.78242 356.471 4.99299 358.374 4.99083 360.359V527.491C4.99299 529.475 5.78242 531.378 7.18589 532.782C8.58936 534.185 10.4923 534.975 12.4771 534.977H686.24C688.225 534.975 690.128 534.185 691.531 532.782C692.935 531.378 693.724 529.475 693.726 527.491V360.359C693.724 358.374 692.935 356.471 691.531 355.068C690.128 353.664 688.225 352.875 686.24 352.872H12.4771Z" fill="#E6E6E6"/>
<path d="M99.8165 496.328C128.758 496.328 152.22 472.866 152.22 443.924C152.22 414.982 128.758 391.52 99.8165 391.52C70.8748 391.52 47.4128 414.982 47.4128 443.924C47.4128 472.866 70.8748 496.328 99.8165 496.328Z" fill="#303030"/>
<path d="M220.844 408.988C218.528 408.988 216.306 409.908 214.668 411.546C213.03 413.184 212.11 415.406 212.11 417.722C212.11 420.038 213.03 422.26 214.668 423.898C216.306 425.536 218.528 426.456 220.844 426.456H462.899C465.216 426.456 467.437 425.536 469.075 423.898C470.713 422.26 471.633 420.038 471.633 417.722C471.633 415.406 470.713 413.184 469.075 411.546C467.437 409.908 465.216 408.988 462.899 408.988H220.844Z" fill="#E6E6E6"/>
<path d="M220.844 461.392C218.528 461.392 216.306 462.312 214.668 463.95C213.03 465.588 212.11 467.809 212.11 470.126C212.11 472.442 213.03 474.664 214.668 476.302C216.306 477.94 218.528 478.86 220.844 478.86H632.587C634.904 478.86 637.125 477.94 638.763 476.302C640.401 474.664 641.321 472.442 641.321 470.126C641.321 467.809 640.401 465.588 638.763 463.95C637.125 462.312 634.904 461.392 632.587 461.392H220.844Z" fill="#E6E6E6"/>
<path d="M1295.12 906.793H621.358C618.05 906.789 614.879 905.474 612.54 903.135C610.201 900.796 608.885 897.624 608.881 894.316V727.185C608.885 723.877 610.201 720.705 612.54 718.366C614.879 716.027 618.05 714.711 621.358 714.708H1295.12C1298.43 714.711 1301.6 716.027 1303.94 718.366C1306.28 720.705 1307.59 723.877 1307.6 727.185V894.316C1307.59 897.624 1306.28 900.796 1303.94 903.135C1301.6 905.474 1298.43 906.789 1295.12 906.793ZM621.358 719.698C619.373 719.701 617.47 720.49 616.067 721.893C614.664 723.297 613.874 725.2 613.872 727.185V894.316C613.874 896.301 614.664 898.204 616.067 899.608C617.47 901.011 619.373 901.801 621.358 901.803H1295.12C1297.11 901.801 1299.01 901.011 1300.41 899.608C1301.82 898.204 1302.61 896.301 1302.61 894.316V727.185C1302.61 725.2 1301.82 723.297 1300.41 721.893C1299.01 720.49 1297.11 719.701 1295.12 719.698H621.358Z" fill="#3F3D56"/>
<path d="M708.698 863.153C737.639 863.153 761.101 839.692 761.101 810.75C761.101 781.808 737.639 758.346 708.698 758.346C679.756 758.346 656.294 781.808 656.294 810.75C656.294 839.692 679.756 863.153 708.698 863.153Z" fill="#303030"/>
<path d="M829.725 775.814C827.409 775.814 825.187 776.734 823.549 778.372C821.911 780.01 820.991 782.232 820.991 784.548C820.991 786.864 821.911 789.086 823.549 790.724C825.187 792.362 827.409 793.282 829.725 793.282H1051.82C1054.13 793.282 1056.36 792.362 1057.99 790.724C1059.63 789.086 1060.55 786.864 1060.55 784.548C1060.55 782.232 1059.63 780.01 1057.99 778.372C1056.36 776.734 1054.13 775.814 1051.82 775.814H829.725Z" fill="#E6E6E6"/>
<path d="M829.725 828.218C827.409 828.218 825.187 829.138 823.549 830.776C821.911 832.414 820.991 834.635 820.991 836.952C820.991 839.268 821.911 841.49 823.549 843.128C825.187 844.765 827.409 845.686 829.725 845.686H1241.47C1243.78 845.686 1246.01 844.765 1247.64 843.128C1249.28 841.49 1250.2 839.268 1250.2 836.952C1250.2 834.635 1249.28 832.414 1247.64 830.776C1246.01 829.138 1243.78 828.218 1241.47 828.218H829.725Z" fill="#E6E6E6"/>
<path d="M1657.58 864.407C1628.32 952.189 1508.61 859.087 1508.61 859.087L1540.53 526.579C1588.42 489.338 1638.96 521.259 1638.96 521.259L1657.58 864.407Z" fill="#E6E6E6"/>
<path d="M1651.29 1159.02L1692.08 1159.44L1681.89 1277.02L1651.3 1277.02L1651.29 1159.02Z" fill="#FFB8B8"/>
<path d="M1643.49 1267.03H1703.74C1713.92 1267.04 1723.68 1271.09 1730.88 1278.29C1738.08 1285.48 1742.13 1295.24 1742.14 1305.42V1306.67H1643.49V1267.03Z" fill="#2F2E41"/>
<path d="M1540.72 1159.02L1495.57 1159.01L1510.12 1277.02L1540.72 1277.02L1540.72 1159.02Z" fill="#FFB8B8"/>
<path d="M1449.87 1306.67V1305.42C1449.87 1295.24 1453.92 1285.47 1461.12 1278.27C1468.32 1271.07 1478.09 1267.03 1488.27 1267.03L1548.52 1267.03L1548.52 1306.68L1449.87 1306.67Z" fill="#2F2E41"/>
<path d="M1648.54 1256.65L1595.11 945.165L1545.6 1252.64L1495.44 1255.42L1482.06 843.464L1483.07 843.239C1491.36 841.382 1686.54 798.514 1718.53 859.839L1718.7 860.15L1691.99 1258.05L1648.54 1256.65Z" fill="#2F2E41"/>
<path d="M1591.91 487.613C1625.76 487.613 1653.2 460.172 1653.2 426.323C1653.2 392.473 1625.76 365.033 1591.91 365.033C1558.06 365.033 1530.62 392.473 1530.62 426.323C1530.62 460.172 1558.06 487.613 1591.91 487.613Z" fill="#FFB8B8"/>
<path d="M1643.4 890.675C1636.21 888.685 1631.04 880.435 1627.11 864.709C1626.43 861.998 1562.79 590.934 1616.61 541.823L1629.01 507.367L1645.99 518.684C1651.99 518.74 1713.42 520.294 1718.66 559.665C1723.8 598.203 1737.79 856.403 1723.73 872.463C1723.46 872.817 1723.11 873.105 1722.71 873.308C1722.31 873.51 1721.87 873.622 1721.42 873.634C1707.17 873.634 1702.84 857.822 1701.83 852.783C1698.44 854.186 1688.35 859.343 1671.76 875.929C1661.49 886.203 1653.43 891.126 1646.77 891.126C1645.63 891.13 1644.5 890.978 1643.4 890.675Z" fill="#2F2E41"/>
<path d="M1510.39 875.929C1493.8 859.338 1483.71 854.183 1480.33 852.783C1479.31 857.822 1474.98 873.634 1460.73 873.634C1460.28 873.622 1459.85 873.51 1459.45 873.308C1459.05 873.105 1458.7 872.817 1458.42 872.463C1444.36 856.404 1458.35 598.204 1463.49 559.665C1468.74 520.294 1530.16 518.74 1536.16 518.684L1553.14 507.367L1565.54 541.823C1619.35 590.93 1555.72 861.998 1555.05 864.709C1551.11 880.435 1545.94 888.685 1538.75 890.675C1537.65 890.978 1536.52 891.13 1535.38 891.127C1528.72 891.127 1520.66 886.201 1510.39 875.929Z" fill="#2F2E41"/>
<path d="M1642.51 461.333C1652.88 453.874 1660.73 443.436 1665.02 431.407C1669.31 419.377 1669.84 406.326 1666.53 393.989C1663.23 381.653 1656.24 370.615 1646.51 362.345C1636.78 354.075 1624.76 348.964 1612.05 347.691C1606.41 347.127 1600.33 347.211 1595.65 344.006C1591.49 341.16 1589.26 336.223 1585.44 332.938C1583.01 331.061 1580.22 329.705 1577.25 328.956C1574.28 328.206 1571.18 328.078 1568.15 328.581C1562.11 329.622 1556.26 331.545 1550.78 334.289C1537.19 340.348 1522.74 347.806 1516.56 361.339C1511.2 373.062 1513.57 387.518 1521.15 397.94C1529.12 408.255 1540.75 415.119 1553.63 417.119C1566.44 419.032 1579.51 417.854 1591.77 413.684C1599.86 411.139 1607.85 407.671 1616.32 407.387C1622.94 407.166 1629.47 408.918 1635.08 412.419C1640.7 415.92 1645.15 421.013 1647.86 427.05C1650.58 433.086 1651.44 439.794 1650.33 446.319C1649.22 452.844 1646.19 458.893 1641.64 463.694" fill="#2F2E41"/>
<path d="M1308.45 825.935C1311.99 825.853 1315.48 825.075 1318.71 823.645C1321.95 822.215 1324.88 820.162 1327.32 817.602C1329.76 815.041 1331.68 812.025 1332.96 808.724C1334.24 805.424 1334.85 801.904 1334.77 798.365L1370.51 738.06L1342.9 712.742L1305.25 772.159C1298.3 772.827 1291.88 776.163 1287.34 781.466C1282.81 786.769 1280.5 793.625 1280.92 800.592C1281.33 807.558 1284.43 814.092 1289.57 818.819C1294.7 823.546 1301.47 826.097 1308.45 825.935Z" fill="#FFB8B8"/>
<path d="M1723.12 892.001C1726.08 890.068 1728.64 887.57 1730.64 884.649C1732.64 881.729 1734.04 878.443 1734.77 874.979C1735.5 871.516 1735.54 867.943 1734.89 864.464C1734.24 860.984 1732.91 857.668 1730.98 854.703L1729.61 784.615L1692.8 777.632L1692.08 847.97C1686.52 852.196 1682.83 858.411 1681.76 865.308C1680.7 872.206 1682.35 879.247 1686.37 884.951C1690.39 890.655 1696.47 894.578 1703.32 895.892C1710.17 897.207 1717.27 895.812 1723.12 892.001Z" fill="#FFB8B8"/>
<path d="M1319.32 728.969L1318.91 728.307L1319.32 727.644C1372.93 641.555 1485.46 534.016 1486.59 532.939L1486.95 532.601L1500.85 532.458L1515.87 569.89C1511.19 578.888 1385.12 754.824 1368.47 766.493C1367.15 767.411 1365.65 768.04 1364.06 768.338C1362.48 768.637 1360.85 768.598 1359.28 768.226C1356.51 767.586 1353.87 766.462 1351.48 764.905C1336.12 755.391 1320.11 730.215 1319.32 728.969Z" fill="#2F2E41"/>
<path d="M1685.8 827.206C1684.3 826.696 1682.93 825.882 1681.77 824.815C1680.61 823.748 1679.68 822.451 1679.04 821.006C1671.01 802.279 1705.42 565.72 1706.88 555.659L1707.16 553.756L1718.79 561.125L1718.91 561.627C1719.25 563.138 1753.12 713.84 1743.94 813.978L1743.88 814.695L1743.22 814.997C1741.82 815.645 1713.61 828.604 1694.8 828.604C1691.74 828.684 1688.69 828.21 1685.8 827.206Z" fill="#2F2E41"/>
<path d="M1917.5 1308.53H1253.72C1253.06 1308.53 1252.43 1308.27 1251.96 1307.8C1251.49 1307.33 1251.23 1306.7 1251.23 1306.04C1251.23 1305.37 1251.49 1304.74 1251.96 1304.27C1252.43 1303.8 1253.06 1303.54 1253.72 1303.54H1917.5C1918.17 1303.54 1918.8 1303.8 1919.27 1304.27C1919.74 1304.74 1920 1305.37 1920 1306.04C1920 1306.7 1919.74 1307.33 1919.27 1307.8C1918.8 1308.27 1918.17 1308.53 1917.5 1308.53Z" fill="#3F3D56"/>
</svg>
